<?xml version="1.0" standalone="no"?>
<!DOCTYPE svg PUBLIC "-//W3C//DTD SVG 20010904//EN"
 "http://www.w3.org/TR/2001/REC-SVG-20010904/DTD/svg10.dtd">
<svg version="1.0" xmlns="http://www.w3.org/2000/svg"
 width="1254.000000pt" height="1254.000000pt" viewBox="0 0 1254.000000 1254.000000"
 preserveAspectRatio="xMidYMid meet">

<g transform="translate(0.000000,1254.000000) scale(0.100000,-0.100000)"
fill="#000000" stroke="none">
<path d="M4084 7889 c-11 -6 -28 -23 -37 -39 -16 -26 -17 -107 -17 -958 0
-512 -3 -937 -6 -946 -3 -9 -16 -16 -29 -16 -13 0 -25 -6 -28 -14 -4 -9 -28
-15 -76 -18 -57 -3 -75 -8 -95 -27 -24 -22 -26 -31 -28 -135 -3 -107 -4 -111
-25 -114 -22 -3 -23 -1 -23 92 0 85 2 96 18 96 14 0 15 2 2 10 -13 8 -15 81
-12 577 1 312 5 750 8 973 6 497 18 460 -139 460 -281 0 -660 -68 -922 -165
-348 -129 -613 -311 -845 -580 -99 -116 -105 -127 -86 -163 8 -16 11 -33 7
-38 -4 -5 -51 -106 -104 -225 -53 -119 -104 -232 -113 -252 -17 -35 -18 -36
-153 -67 -433 -100 -715 -184 -779 -230 -83 -60 -99 -109 -151 -462 -25 -165
-31 -240 -31 -369 l0 -161 34 -34 34 -34 205 0 205 0 28 -56 c39 -77 119 -155
198 -194 112 -55 270 -53 386 5 72 36 144 108 181 179 22 42 37 62 43 56 14
-14 2213 -13 2221 0 3 6 26 10 49 10 43 0 44 -1 70 -54 42 -86 107 -150 193
-193 67 -33 86 -38 168 -41 191 -9 331 72 415 238 17 34 36 60 42 58 7 -3 27
-33 45 -69 40 -80 116 -152 203 -193 61 -29 72 -31 180 -31 111 0 118 1 183
33 83 41 163 118 202 194 l30 58 61 0 c102 0 99 -7 102 249 l3 221 -25 25
c-25 24 -28 25 -178 25 -111 1 -158 4 -170 14 -10 7 -18 15 -18 17 0 2 177 3
394 1 l394 -2 106 -114 106 -114 0 -101 0 -102 30 -17 c27 -15 30 -22 30 -67
0 -49 -1 -50 -31 -52 -41 -3 -59 -19 -59 -52 0 -47 13 -51 176 -51 156 0 163
2 177 43 9 24 -34 67 -68 67 -23 0 -25 3 -25 50 0 36 4 50 14 50 7 0 116 104
242 230 l228 230 1183 0 1183 0 0 -91 c0 -103 9 -129 46 -129 20 0 25 -4 20
-16 -21 -54 -28 -115 -24 -194 4 -71 11 -101 36 -154 33 -71 94 -142 158 -186
114 -79 288 -93 416 -33 115 54 200 149 238 267 l17 49 17 -53 c23 -69 72
-145 126 -194 135 -121 360 -141 512 -45 174 111 257 343 188 525 -13 33 -13
34 8 34 10 0 23 5 28 10 7 7 21 7 42 -1 l32 -11 0 -118 c0 -83 4 -121 12 -126
19 -12 301 -4 315 8 10 8 13 66 13 234 l0 224 90 0 c95 0 142 14 154 45 3 9 6
510 6 1114 l0 1098 -23 21 -23 22 -3945 -1 c-2631 0 -3951 -4 -3965 -10z m171
-1059 l0 -955 -60 0 -60 0 -3 945 c-1 520 0 951 3 958 3 9 22 12 62 10 l58 -3
0 -955z m7675 0 l0 -960 -3805 0 -3805 0 0 960 0 960 3805 0 3805 0 0 -960z
m-8302 547 c-2 -188 -7 -347 -11 -353 -7 -13 -1538 -18 -1640 -6 l-58 7 98 97
c154 153 279 244 470 341 294 150 711 250 1057 256 l89 1 -5 -343z m-11 -829
c-4 -227 -7 -529 -7 -670 l0 -258 -490 0 -490 0 0 670 0 670 497 0 496 0 -6
-412z m-1047 -257 c0 -363 -3 -666 -6 -675 -5 -14 -51 -16 -415 -16 l-409 0 0
369 0 369 -50 7 c-32 4 -50 12 -50 21 0 17 100 244 192 437 l71 147 334 0 333
0 0 -659z m-888 -316 l-3 -326 -48 35 c-234 172 -566 127 -726 -97 l-40 -56
-162 -1 -162 0 5 38 c9 58 9 59 66 66 95 13 131 36 198 128 34 46 70 99 81
120 18 35 18 37 0 59 l-18 22 -64 -17 c-93 -26 -150 -53 -187 -88 -30 -30 -32
-30 -32 -10 0 11 5 44 11 72 16 77 57 112 171 149 117 37 391 108 618 161 96
22 184 45 195 52 19 11 85 27 95 22 3 -1 4 -149 2 -329z m-912 -132 c0 -4 -16
-31 -36 -60 -27 -39 -45 -55 -72 -63 -20 -5 -38 -8 -40 -6 -2 2 5 21 15 42 13
28 33 47 68 66 52 29 65 33 65 21z m3490 -84 l0 -49 -59 0 c-65 0 -71 6 -71
65 l0 34 58 3 c31 2 60 2 65 0 4 -2 7 -25 7 -53z m7670 1 l0 -50 -3805 0
-3805 0 0 50 0 50 3805 0 3805 0 0 -50z m-7960 15 c7 -8 23 -15 36 -15 21 0
24 -5 24 -35 0 -51 26 -94 65 -111 19 -8 67 -14 107 -14 66 -1 71 -2 54 -15
-15 -12 -51 -15 -152 -15 -129 0 -132 0 -148 25 -14 21 -25 25 -61 25 l-45 0
0 79 c0 75 1 80 23 84 48 9 85 6 97 -8z m-2584 -94 c28 -5 76 -19 108 -31 106
-40 216 -174 232 -282 l6 -43 -26 54 c-50 102 -109 165 -201 211 -84 42 -177
57 -262 41 -130 -24 -224 -93 -299 -221 -38 -63 -44 -69 -39 -40 9 44 48 124
81 164 96 116 255 174 400 147z m5124 -121 c0 -22 -1 -40 -3 -40 -2 0 -21 18
-42 40 l-39 40 42 0 42 0 0 -40z m190 -139 l0 -179 -27 -4 c-65 -9 -63 -14
-63 183 l0 179 45 0 45 0 0 -179z m379 176 c-2 -1 -66 -63 -141 -137 l-138
-134 0 137 0 137 142 0 c78 0 139 -1 137 -3z m4366 -57 c0 -53 -1 -55 -27 -58
-28 -3 -28 -3 -28 58 0 61 0 61 28 58 26 -3 27 -5 27 -58z m235 -125 l0 -185
-65 0 -65 0 0 185 0 185 65 0 65 0 0 -185z m-637 109 c178 -62 273 -283 196
-460 -25 -59 -102 -140 -164 -172 -73 -37 -188 -42 -270 -11 -82 31 -163 112
-194 194 -33 87 -27 208 14 283 84 154 256 222 418 166z m-9606 -6 c79 -29
162 -112 191 -191 49 -131 21 -267 -77 -366 -167 -171 -442 -124 -545 94 -22
46 -30 79 -34 146 -5 86 -4 88 31 146 57 93 135 159 217 184 52 16 158 10 217
-13z m1138 7 c16 -13 93 -15 525 -15 278 0 562 0 633 0 l127 0 0 -185 0 -185
-1012 0 -1013 0 -1 113 c-1 108 -13 167 -58 270 -8 16 14 17 385 17 333 -1
397 -3 414 -15z m2030 -15 c66 -32 131 -98 163 -168 23 -49 27 -70 27 -147 0
-81 -3 -96 -32 -151 -133 -256 -491 -248 -610 13 -83 180 2 386 190 466 62 26
196 19 262 -13z m823 15 c74 -22 148 -86 191 -165 34 -61 36 -70 36 -155 0
-78 -4 -98 -28 -150 -57 -123 -171 -195 -307 -195 -133 0 -236 62 -301 182
-32 58 -34 69 -34 153 0 76 4 99 26 146 42 89 126 161 219 190 43 13 144 10
198 -6z m4788 -18 c111 -56 186 -181 186 -307 0 -95 -31 -171 -101 -241 -77
-76 -146 -103 -256 -97 -134 7 -230 73 -289 197 -79 169 -5 369 168 453 56 27
68 29 151 25 73 -3 100 -8 141 -30z m-9391 -54 c-18 -45 -35 -155 -35 -225 l0
-78 -123 0 c-82 0 -127 4 -135 12 -13 13 -16 130 -5 241 l6 67 150 0 c138 0
149 -1 142 -17z m3249 -56 c-36 -76 -60 -184 -49 -224 5 -20 2 -23 -24 -23
-38 0 -41 16 -39 188 l2 132 73 0 72 0 -35 -73z m870 16 c-18 -31 -37 -71 -40
-90 -7 -38 -24 -55 -24 -24 0 26 -28 98 -52 133 -10 14 -18 29 -18 32 0 3 38
6 84 6 l85 0 -35 -57z m846 -103 c0 -136 -2 -160 -15 -160 -11 0 -15 11 -15
39 0 69 -19 145 -54 214 l-34 67 59 0 59 0 0 -160z m4740 68 c0 -2 -8 -24 -18
-51 l-18 -47 -16 50 -16 50 34 0 c19 0 34 -1 34 -2z m-9550 -38 c0 -11 -19
-34 -24 -30 -2 3 -8 18 -11 33 -7 27 -7 28 14 15 11 -7 21 -15 21 -18z m5700
-250 c0 -43 -3 -50 -20 -50 -17 0 -20 7 -20 50 0 43 3 50 20 50 17 0 20 -7 20
-50z"/>
<path d="M4772 6068 c-16 -16 -15 -63 2 -77 9 -8 56 -11 142 -9 127 3 128 3
143 30 14 24 14 28 -3 47 -17 19 -30 21 -146 21 -85 0 -130 -4 -138 -12z"/>
<path d="M5550 6061 c-15 -28 -12 -46 8 -64 15 -14 41 -17 140 -17 130 0 152
8 152 54 0 41 -17 46 -157 46 -121 0 -133 -2 -143 -19z"/>
<path d="M6334 6055 c-15 -23 -15 -27 0 -50 16 -24 19 -25 137 -25 134 0 159
7 159 48 0 47 -14 52 -152 52 -125 0 -128 0 -144 -25z"/>
<path d="M7122 6068 c-19 -19 -15 -66 7 -78 11 -5 73 -10 139 -10 107 0 121 2
137 20 15 16 17 26 9 48 l-9 27 -135 3 c-97 2 -139 -1 -148 -10z"/>
<path d="M7902 6068 c-17 -17 -15 -54 4 -72 12 -13 40 -16 138 -16 106 0 125
2 139 18 21 23 22 46 1 66 -12 13 -40 16 -143 16 -85 0 -131 -4 -139 -12z"/>
<path d="M8682 6068 c-19 -19 -15 -66 7 -78 11 -5 73 -10 139 -10 107 0 121 2
137 20 15 16 17 26 9 48 l-9 27 -135 3 c-97 2 -139 -1 -148 -10z"/>
<path d="M9462 6068 c-19 -19 -15 -66 7 -78 11 -5 73 -10 139 -10 107 0 121 2
137 20 15 16 17 26 9 48 l-9 27 -135 3 c-97 2 -139 -1 -148 -10z"/>
<path d="M10241 6061 c-15 -27 -14 -47 5 -65 12 -13 40 -16 138 -16 111 0 125
2 141 20 15 16 17 26 9 48 l-9 27 -137 3 c-127 2 -138 1 -147 -17z"/>
<path d="M11020 6061 c-14 -27 -13 -47 6 -65 23 -23 255 -23 278 0 19 18 20
38 6 65 -10 17 -22 19 -145 19 -123 0 -135 -2 -145 -19z"/>
<path d="M2935 6827 c-16 -13 -17 -17 -6 -31 12 -14 42 -16 216 -16 112 0 210
-3 219 -6 14 -5 16 -58 16 -494 0 -436 -2 -489 -16 -494 -9 -3 -109 -6 -224
-6 -183 0 -209 -2 -214 -16 -15 -40 7 -44 226 -44 221 0 254 6 278 49 6 13 10
194 10 515 l0 495 -24 28 -24 28 -219 3 c-177 2 -222 0 -238 -11z"/>
<path d="M1984 6830 c-17 -6 -38 -18 -47 -28 -18 -20 -181 -380 -192 -425 -10
-38 16 -73 62 -87 55 -17 560 -10 590 8 47 27 53 56 53 271 l0 201 -29 32 -29
33 -189 2 c-103 1 -202 -2 -219 -7z m356 -270 l0 -170 -235 0 c-145 0 -235 4
-235 10 0 13 118 279 136 308 14 21 20 22 174 22 l160 0 0 -170z"/>
<path d="M2277 5912 c-22 -25 -21 -75 1 -95 14 -13 39 -17 105 -17 77 0 87 2
101 22 22 31 20 64 -4 88 -28 28 -178 30 -203 2z m161 -49 c3 -10 -14 -13 -62
-13 -61 0 -77 6 -59 24 12 12 116 2 121 -11z"/>
<path d="M10865 5480 c-85 -22 -151 -74 -193 -154 -38 -73 -38 -179 0 -251 55
-104 137 -154 254 -155 113 0 197 48 249 141 27 48 30 63 30 139 0 77 -3 90
-31 140 -63 112 -192 170 -309 140z m107 -100 c76 -21 138 -102 138 -180 0
-69 -52 -146 -113 -169 -66 -25 -164 -4 -209 46 -90 100 -40 264 92 301 47 13
49 14 92 2z"/>
<path d="M1253 5480 c-206 -42 -295 -307 -157 -468 80 -94 231 -124 340 -69
97 49 164 155 164 257 0 174 -174 314 -347 280z m145 -119 c45 -23 77 -64 92
-120 14 -53 5 -102 -30 -149 -100 -138 -330 -68 -330 101 0 111 73 186 183
187 28 0 63 -8 85 -19z"/>
<path d="M1976 5361 c-39 -8 -53 -32 -40 -68 l9 -28 263 -3 c251 -2 262 -2
282 18 25 25 25 45 0 70 -19 19 -32 20 -252 19 -128 -1 -246 -4 -262 -8z"/>
<path d="M4391 5474 c-134 -36 -213 -137 -214 -274 -1 -164 121 -284 288 -283
142 0 248 91 275 236 38 199 -154 375 -349 321z m156 -115 c116 -56 128 -234
21 -310 -48 -35 -149 -38 -203 -7 -93 55 -115 197 -42 277 59 64 143 79 224
40z"/>
<path d="M5270 5481 c-93 -20 -175 -85 -212 -169 -29 -66 -29 -161 2 -230 63
-144 240 -209 382 -139 173 85 217 304 89 450 -58 66 -176 105 -261 88z m128
-115 c31 -16 74 -61 91 -94 7 -13 12 -45 13 -72 1 -153 -175 -238 -300 -144
-134 102 -55 324 116 324 29 0 65 -6 80 -14z"/>
<path d="M10000 5480 c-96 -20 -184 -105 -211 -203 -15 -57 -6 -154 20 -205
51 -99 139 -154 251 -154 90 0 157 29 214 93 101 113 101 265 0 378 -71 79
-170 112 -274 91z m137 -112 c60 -18 113 -103 113 -178 -1 -42 -36 -106 -75
-136 -48 -37 -141 -45 -194 -17 -88 46 -126 155 -83 240 25 48 73 91 110 99
15 3 32 7 37 9 12 3 47 -3 92 -17z"/>
</g>
</svg>
