<?xml version="1.0" standalone="no"?>
<!DOCTYPE svg PUBLIC "-//W3C//DTD SVG 20010904//EN"
 "http://www.w3.org/TR/2001/REC-SVG-20010904/DTD/svg10.dtd">
<svg version="1.0" xmlns="http://www.w3.org/2000/svg"
 width="1254.000000pt" height="1254.000000pt" viewBox="0 0 1254.000000 1254.000000"
 preserveAspectRatio="xMidYMid meet">

<g transform="translate(0.000000,1254.000000) scale(0.100000,-0.100000)"
fill="#000000" stroke="none">
<path d="M3440 7895 c-653 -66 -1183 -313 -1533 -713 -124 -143 -132 -155
-118 -191 12 -27 6 -43 -74 -222 -48 -107 -104 -230 -124 -274 l-38 -81 -79
-18 c-437 -100 -734 -181 -814 -221 -52 -26 -103 -79 -124 -128 -33 -79 -96
-514 -103 -709 -6 -174 -1 -201 49 -243 29 -25 31 -25 237 -25 l208 0 24 -52
c75 -161 280 -268 459 -239 132 22 263 114 324 231 36 68 33 65 49 51 11 -8
298 -10 1128 -7 613 2 1139 7 1169 11 l56 7 24 -53 c55 -118 192 -218 329
-240 177 -28 371 74 455 239 35 69 57 69 92 0 39 -76 126 -163 199 -198 213
-102 473 -16 580 192 l30 58 66 0 c102 0 99 -7 99 263 l0 226 -26 20 c-24 19
-40 21 -170 21 -141 0 -145 1 -211 32 -38 18 -70 34 -73 36 -3 2 7 14 21 26
26 23 34 23 320 30 162 3 353 9 425 12 125 6 132 6 138 -13 7 -22 7 -22 158
-184 l107 -116 3 -104 c3 -97 5 -105 26 -114 19 -9 22 -17 22 -72 l0 -63 -30
0 c-32 0 -70 -30 -70 -55 0 -8 9 -24 20 -35 18 -18 33 -20 173 -20 136 0 156
2 170 18 37 41 10 92 -49 92 l-34 0 0 59 c0 51 3 61 24 75 14 8 26 24 28 35 2
10 77 98 168 195 l165 176 1222 0 1223 0 0 -73 c0 -80 9 -97 52 -97 15 0 28
-1 28 -2 0 -2 -10 -28 -22 -58 -31 -78 -31 -230 1 -312 85 -219 320 -337 542
-272 137 40 255 163 300 312 l12 43 18 -55 c37 -121 121 -219 235 -276 67 -34
73 -35 184 -35 109 0 119 2 183 32 80 38 173 122 210 191 34 63 57 152 57 222
0 60 -24 165 -42 187 -17 20 -4 26 62 27 l60 1 4 -113 c3 -65 10 -120 17 -128
9 -11 42 -14 144 -14 115 0 134 2 148 18 14 16 17 54 19 278 l3 259 55 3 c37
2 59 8 68 19 17 23 17 312 0 336 -12 16 -258 17 -3963 15 l-3950 -3 -3 -174
c-1 -107 1 -178 8 -185 5 -5 58 -12 118 -15 94 -5 113 -9 145 -31 20 -14 37
-28 37 -31 0 -3 -19 -12 -42 -19 -24 -7 -64 -23 -90 -36 -43 -22 -60 -24 -176
-24 -116 0 -131 2 -147 20 -16 18 -31 20 -123 20 l-105 0 7 1110 7 1110 -25
25 c-24 24 -31 25 -128 24 -57 -1 -159 -7 -228 -14z m270 -450 l0 -365 -870 0
c-478 0 -870 4 -870 8 0 13 210 215 275 264 336 254 811 418 1297 447 73 4
141 9 151 10 16 1 17 -22 17 -364z m-1084 -1118 c0 -462 -3 -690 -10 -695 -6
-3 -195 -5 -421 -4 l-410 2 -5 383 -5 382 -52 3 c-29 2 -53 5 -53 7 0 6 161
367 221 494 l51 110 57 4 c31 2 184 3 341 3 l285 -1 1 -688z m1079 3 l0 -685
-507 -3 -508 -2 0 684 0 685 38 4 c20 2 249 3 507 3 l470 -1 0 -685z m-1985
-315 l0 -335 -64 44 c-156 107 -339 129 -508 61 -82 -33 -151 -86 -213 -163
l-49 -62 -163 0 -163 0 0 28 c0 61 7 69 76 80 107 18 130 35 217 155 81 114
92 148 56 168 -17 9 -37 7 -98 -11 -98 -29 -127 -44 -175 -89 l-38 -36 6 40
c20 113 51 166 115 192 94 40 339 106 695 188 109 25 208 52 219 60 12 8 36
15 54 15 l33 0 0 -335z m7233 5 l3057 0 0 -84 0 -83 -31 -7 c-17 -3 -1759 -6
-3870 -6 l-3839 0 0 90 0 90 763 3 c419 2 785 2 812 0 28 -1 1426 -3 3108 -3z
m-8169 -159 c-35 -59 -79 -101 -112 -107 l-34 -7 20 39 c24 47 46 68 92 88 49
21 53 20 34 -13z m9329 -126 c-2 -13 -93 -49 -170 -67 -61 -14 -62 -14 -86 9
l-24 24 -1255 2 c-1064 2 -1258 4 -1272 16 -13 11 -14 16 -4 22 19 12 2813 6
2811 -6z m1355 5 l33 0 -20 -29 c-30 -41 -104 -50 -158 -19 -21 12 -41 27 -45
33 -9 12 70 25 122 19 19 -2 50 -4 68 -4z m-9985 -40 c76 -24 171 -90 211
-149 32 -46 76 -148 75 -176 0 -11 -12 7 -28 40 -42 90 -125 174 -213 216 -69
32 -79 34 -184 34 -107 0 -112 -1 -186 -38 -91 -44 -162 -117 -207 -210 -36
-73 -41 -57 -7 25 89 218 317 327 539 258z m10162 -85 l0 -70 -35 0 -35 0 -5
73 -5 73 40 -3 40 -3 0 -70z m227 -7 c2 -46 1 -136 0 -200 l-4 -118 -64 0 -64
0 0 200 0 200 64 0 64 0 4 -82z m-5172 15 l0 -57 -50 49 c-27 27 -50 53 -50
57 0 4 23 8 50 8 l50 0 0 -57z m185 -25 c4 -46 5 -132 3 -193 l-3 -110 -47 -3
-48 -3 0 189 c0 104 3 192 7 195 3 4 23 7 44 7 l37 0 7 -82z m332 62 c2 -8
-51 -71 -117 -140 l-119 -125 -1 143 0 143 117 -3 c95 -2 118 -6 120 -18z
m-5720 -119 c172 -86 246 -298 164 -466 -36 -72 -104 -140 -178 -176 -39 -19
-65 -23 -138 -23 -78 -1 -97 3 -145 26 -72 35 -137 100 -169 168 -20 43 -26
74 -29 142 -4 80 -1 93 26 151 16 35 44 80 62 100 100 114 271 147 407 78z
m3200 5 c76 -35 133 -94 174 -179 24 -52 29 -75 29 -139 0 -146 -68 -256 -198
-320 -60 -30 -75 -33 -157 -33 -79 0 -96 4 -144 29 -127 66 -195 178 -195 321
0 69 4 89 30 145 87 184 281 258 461 176z m866 6 c60 -27 147 -108 175 -165
50 -101 51 -220 2 -321 -28 -60 -105 -134 -170 -165 -47 -22 -69 -26 -145 -26
-78 0 -97 4 -147 28 -214 105 -264 387 -101 568 91 100 261 136 386 81z m4798
5 c109 -46 184 -133 216 -254 39 -152 -44 -321 -195 -395 -60 -30 -76 -33
-152 -33 -108 0 -175 30 -249 110 -172 189 -104 481 134 578 62 25 177 22 246
-6z m907 -11 c266 -136 262 -506 -6 -638 -60 -30 -76 -33 -152 -33 -101 0
-154 20 -226 87 -62 57 -91 105 -110 181 -46 177 51 357 226 421 71 26 200 17
268 -18z m-8638 4 c12 -6 247 -10 669 -10 l651 0 0 -195 0 -195 -1036 2 -1037
3 2 91 c2 99 -16 200 -49 264 -11 21 -20 42 -20 44 0 15 791 11 820 -4z
m-1780 -59 c0 -4 -7 -30 -16 -57 -8 -27 -18 -97 -21 -156 l-6 -108 -127 0
c-90 0 -130 4 -137 13 -11 13 -9 263 2 297 6 20 13 21 156 19 82 0 149 -4 149
-8z m3350 4 c0 -3 -9 -18 -20 -33 -32 -44 -62 -142 -67 -224 -6 -78 -6 -78
-34 -78 l-29 0 0 170 0 170 75 0 c41 0 75 -2 75 -5z m856 -33 c-13 -21 -32
-61 -42 -90 -18 -51 -34 -68 -34 -37 0 12 -36 96 -68 158 -2 4 35 7 82 7 l86
0 -24 -38z m854 -132 c0 -159 -1 -170 -19 -170 -16 0 -19 11 -23 92 -5 81 -10
99 -46 170 l-40 78 64 0 64 0 0 -170z m4805 93 c-21 -50 -34 -90 -35 -108 -1
-14 -49 105 -50 123 0 1 21 2 46 2 40 0 45 -2 39 -17z m-3851 -288 c1 -55 -1
-60 -21 -63 -22 -3 -23 0 -23 56 0 62 5 74 28 70 10 -2 15 -20 16 -63z"/>
<path d="M2004 6871 c-34 -21 -40 -33 -148 -277 -36 -83 -66 -165 -66 -182 0
-22 9 -38 31 -56 l31 -26 285 0 c309 0 327 3 352 57 7 15 11 104 11 234 l0
211 -29 29 -29 29 -204 0 c-182 0 -206 -2 -234 -19z m396 -261 l0 -180 -245 0
c-176 0 -245 3 -245 11 0 20 141 334 154 341 6 4 84 8 174 8 l162 0 0 -180z"/>
<path d="M2330 5950 c-11 -11 -20 -33 -20 -50 0 -53 29 -70 120 -70 73 0 83 3
105 25 30 30 31 54 4 89 -19 24 -26 26 -105 26 -71 0 -87 -3 -104 -20z m170
-50 c0 -6 -28 -10 -65 -10 -37 0 -65 4 -65 10 0 6 28 10 65 10 37 0 65 -4 65
-10z"/>
<path d="M3003 6893 c-16 -6 -17 -35 -1 -51 9 -9 72 -12 223 -12 151 0 214 -3
223 -12 9 -9 12 -132 12 -494 0 -435 -2 -483 -17 -495 -12 -11 -70 -15 -232
-19 -201 -5 -216 -6 -219 -24 -2 -10 2 -22 10 -27 7 -5 105 -9 216 -9 170 0
210 3 239 17 63 30 63 29 63 559 0 529 0 527 -65 558 -27 13 -71 16 -237 15
-111 0 -209 -3 -215 -6z"/>
<path d="M5472 5968 c-7 -7 -12 -21 -12 -33 0 -37 20 -45 105 -45 69 0 85 3
100 20 15 17 16 24 7 45 -11 24 -15 25 -100 25 -55 0 -92 -4 -100 -12z"/>
<path d="M6533 5973 c-17 -6 -16 -58 1 -72 9 -8 44 -11 96 -9 91 3 108 14 96
61 -6 27 -7 27 -94 26 -48 0 -93 -3 -99 -6z"/>
<path d="M7410 5961 c-14 -27 -13 -37 6 -55 11 -12 36 -16 94 -16 82 0 110 12
110 49 0 33 -22 41 -112 41 -76 0 -89 -2 -98 -19z"/>
<path d="M8522 5968 c-7 -7 -12 -21 -12 -33 0 -37 20 -45 105 -45 85 0 105 8
105 45 0 37 -20 45 -105 45 -50 0 -86 -5 -93 -12z"/>
<path d="M9749 5959 c-8 -16 -8 -28 0 -45 10 -23 16 -24 95 -24 64 0 88 4 100
16 19 18 20 28 6 55 -9 17 -22 19 -100 19 -81 0 -90 -2 -101 -21z"/>
<path d="M11032 5968 c-7 -7 -12 -21 -12 -33 0 -37 20 -45 106 -45 62 0 87 4
98 16 19 18 20 28 6 55 -9 17 -22 19 -98 19 -55 0 -92 -4 -100 -12z"/>
<path d="M1259 5497 c-61 -23 -109 -58 -140 -100 -132 -182 -19 -439 200 -455
123 -8 223 46 279 152 22 43 27 64 27 131 0 70 -4 87 -30 133 -51 93 -130 143
-235 149 -39 2 -79 -2 -101 -10z m186 -112 c42 -24 78 -77 89 -131 18 -85 -51
-191 -138 -213 -63 -16 -76 -14 -134 15 -118 58 -143 200 -54 296 67 71 153
83 237 33z"/>
<path d="M4450 5493 c-64 -23 -142 -105 -165 -172 -21 -65 -17 -169 10 -221
24 -48 82 -107 130 -133 59 -32 192 -31 255 1 103 54 154 139 154 257 1 114
-55 204 -157 257 -56 28 -165 34 -227 11z m153 -84 c47 -13 106 -63 123 -106
18 -41 18 -115 0 -156 -18 -44 -77 -94 -128 -107 -142 -39 -276 107 -224 244
20 52 71 103 122 121 48 17 59 18 107 4z"/>
<path d="M5337 5496 c-118 -43 -192 -149 -192 -277 0 -155 125 -279 282 -279
102 0 209 64 255 154 30 58 35 159 13 227 -25 75 -103 152 -175 173 -65 19
-132 20 -183 2z m190 -112 c83 -48 115 -152 73 -239 -57 -118 -199 -148 -297
-62 -112 99 -69 283 77 326 46 13 96 5 147 -25z"/>
<path d="M10150 5501 c-69 -21 -140 -82 -176 -151 -28 -53 -26 -191 3 -246 34
-64 71 -103 127 -132 69 -36 189 -38 252 -5 63 34 97 66 129 125 26 46 30 63
30 133 0 63 -5 89 -23 122 -57 108 -143 164 -251 162 -37 0 -77 -4 -91 -8z
m141 -93 c82 -28 132 -97 132 -182 0 -57 -12 -86 -52 -129 -38 -42 -79 -60
-136 -60 -106 0 -187 81 -188 187 -1 133 122 226 244 184z"/>
<path d="M10995 5486 c-52 -24 -111 -81 -142 -138 -28 -52 -25 -189 5 -248 32
-61 68 -97 127 -128 42 -22 63 -27 130 -27 67 0 88 5 131 27 90 47 144 132
152 239 4 57 1 75 -22 125 -54 117 -139 174 -261 174 -52 0 -83 -6 -120 -24z
m168 -77 c43 -12 101 -59 123 -100 17 -33 19 -116 3 -156 -38 -101 -170 -148
-266 -94 -123 70 -135 241 -22 322 53 37 100 46 162 28z"/>
<path d="M2002 5374 c-28 -20 -30 -69 -3 -84 12 -6 116 -10 268 -10 209 0 252
2 271 16 27 18 29 55 4 77 -16 15 -50 17 -268 17 -210 0 -253 -2 -272 -16z"/>
</g>
</svg>
