<svg xmlns="http://www.w3.org/2000/svg" version="1.1" viewBox="-5.0 -10.0 110.0 135.0">
 <path d="m64.637 16.949c-0.13281 0.015625-0.26172 0.054687-0.38281 0.10938l-30.754 13.32h-0.003906c-0.007813 0.003906-0.015625 0.011719-0.027344 0.015625-0.066406 0.035157-0.12891 0.070313-0.1875 0.11719-0.10547 0.066406-0.20312 0.15234-0.28516 0.24609-0.027344 0.023438-0.050782 0.050782-0.074219 0.078126-0.050781 0.070312-0.097656 0.14453-0.13672 0.22266-0.015625 0.027344-0.027344 0.058594-0.039062 0.085937-0.09375 0.20703-0.13672 0.43359-0.12891 0.66016v36.48c0.003906 0.027344 0.007812 0.058594 0.011718 0.085938 0.003906 0.050781 0.007813 0.10156 0.019532 0.15625 0.011718 0.0625 0.027343 0.125 0.046874 0.18359 0.015626 0.058593 0.035157 0.11328 0.054688 0.16406 0.027344 0.058594 0.058594 0.10938 0.089844 0.16016 0.027344 0.050782 0.058594 0.10156 0.09375 0.14844 0.03125 0.039062 0.066406 0.074218 0.10547 0.10938 0.085938 0.089843 0.18359 0.16797 0.28516 0.23047 0.046875 0.03125 0.09375 0.058593 0.14062 0.085937 0.011718 0.007813 0.023437 0.015625 0.035156 0.019531l30.754 13.32v0.003906c0.027344 0.007813 0.054688 0.015625 0.078125 0.019531 0.082031 0.03125 0.16406 0.054688 0.25 0.070313 0.046875 0.007812 0.097657 0.011719 0.14844 0.015625 0.035156 0.007812 0.070312 0.007812 0.10938 0.011718 0.03125-0.003906 0.066406-0.007812 0.10156-0.011718 0.054688-0.003906 0.11328-0.011719 0.17188-0.019532 0.054688-0.011718 0.10547-0.027343 0.16016-0.046874 0.050781-0.011719 0.10156-0.027344 0.15234-0.042969l30.742-13.32c0.011719-0.007812 0.023437-0.011718 0.035156-0.019531 0.011719-0.003906 0.023437-0.007813 0.035156-0.015625 0.19141-0.09375 0.35938-0.22656 0.49609-0.39453h0.003906c0.0625-0.082031 0.11719-0.17188 0.16406-0.26172 0.003906-0.015625 0.011718-0.027344 0.015625-0.039062 0.042969-0.09375 0.078125-0.1875 0.10156-0.28906v-0.003906c0.027344-0.11328 0.039063-0.23047 0.039063-0.34766v-36.527c0-0.035157 0-0.074219-0.003906-0.11328-0.003907-0.015626-0.003907-0.035157-0.007813-0.050782-0.003906-0.066406-0.015625-0.13281-0.035156-0.19922-0.003907-0.023438-0.007813-0.042969-0.015625-0.0625-0.023438-0.074219-0.050782-0.14453-0.082032-0.21484-0.003906-0.003906-0.003906-0.007813-0.007812-0.011719-0.074219-0.15625-0.17578-0.29688-0.30078-0.41406-0.003907-0.003906-0.007813-0.007812-0.011719-0.011718-0.125-0.11719-0.26953-0.21094-0.42578-0.28125l-30.742-13.32c-0.24609-0.10547-0.51953-0.14453-0.78906-0.10938zm0.19922 3.0625 27.055 11.723-11.68 5.0547-27.055-11.715zm-15.375 6.6641 27.055 11.715-11.68 5.0586-27.055-11.711zm-13.914 7.2969 27.812 12.043v33.344l-27.812-12.047zm58.562 0v33.34l-27.812 12.051 0.007813-33.348 12.441-5.3867v7.6797c0 0.80859 0.65625 1.4648 1.4648 1.4688 0.39062 0 0.76562-0.15234 1.043-0.42969 0.27734-0.27344 0.43359-0.64844 0.43359-1.0391v-8.957zm-74.141 5.7305h0.003906c-0.39062-0.003906-0.76953 0.15234-1.0469 0.42969-0.27734 0.27734-0.42969 0.65234-0.42969 1.043s0.16016 0.76562 0.43359 1.0391c0.27734 0.27734 0.65234 0.42969 1.043 0.42578h8.2969c0.80469 0 1.4609-0.65625 1.4648-1.4648 0-0.38672-0.15234-0.76172-0.42969-1.0391-0.27344-0.27734-0.64844-0.43359-1.0352-0.43359zm-8.0352 8.8359h0.007812c-0.80859 0.003907-1.4648 0.65625-1.4648 1.4648-0.003906 0.39062 0.14844 0.76562 0.42578 1.043 0.27344 0.27734 0.64844 0.43359 1.0391 0.43359h16.328c0.38672 0 0.76172-0.15625 1.0352-0.43359 0.27734-0.27734 0.42969-0.65234 0.42969-1.043-0.003906-0.80859-0.66016-1.4609-1.4648-1.4648zm-7.5273 8.8242c-0.39062 0-0.76562 0.15625-1.0391 0.43359-0.27344 0.27734-0.42969 0.65234-0.42578 1.043 0 0.80859 0.65625 1.4648 1.4648 1.4648h23.863c0.80859 0 1.4609-0.65625 1.4648-1.4648 0-0.39062-0.15234-0.76562-0.42969-1.043-0.27344-0.27734-0.64844-0.43359-1.0352-0.43359z"/>
</svg>