<svg xmlns="http://www.w3.org/2000/svg" version="1.1" viewBox="-5.0 -10.0 110.0 135.0">
 <path d="m80.145 52.344c-6.1719-8.7578-18.102-11.547-20.984-12.109l-0.89844-3.457c1.1367-0.875 2.2031-1.9375 3.1719-3.1758 2.9414-3.75 4.6289-8.7266 4.6289-13.656 0.003906-9.9453-6.9023-17.445-16.062-17.445s-16.066 7.5-16.066 17.445c0 4.9297 1.6875 9.9062 4.6289 13.656 0.96875 1.2383 2.0352 2.3008 3.1719 3.1758l-0.89453 3.457c-2.8828 0.55859-14.812 3.3516-20.98 12.109-5.3633 7.6094-10.188 18.234-8.8828 24.816 0.42969 2.1602 1.4805 3.7891 3.1289 4.832 4.0469 2.5703 10.129 3.4844 14.52 3.7969 0.16406 0.011719 0.33203 0.019532 0.5 0.019532 0.5625 0 1.1211-0.078125 1.6641-0.21484 3.6094 7.2578 11.059 11.906 19.211 11.906s15.602-4.6484 19.211-11.91c0.54297 0.14062 1.0977 0.21875 1.6641 0.21875 0.16797 0 0.33594-0.007813 0.50391-0.019532 4.3906-0.3125 10.477-1.2266 14.52-3.7969 1.6484-1.0469 2.6992-2.6719 3.1289-4.832 1.3047-6.582-3.5234-17.207-8.8828-24.816zm-44.309-32.398c0-8.8633 6.0898-15.547 14.164-15.547s14.164 6.6836 14.164 15.547c0 9.5234-6.6172 17.875-14.164 17.875s-14.164-8.3516-14.164-17.875zm14.164 19.777c2.3008 0 4.5312-0.63281 6.5898-1.8242l0.75 2.8828c-2.832 2.8398-5.5273 4.2266-8.0156 4.1133-2.2734-0.10547-4.5195-1.4727-6.6758-4.0586l0.76172-2.9375c2.0586 1.1914 4.2891 1.8242 6.5898 1.8242zm0 55.879c-7.3828 0-14.133-4.1797-17.449-10.73 1.4492-0.85156 2.5273-2.1992 3.0352-3.8047 2.0781 5.9609 7.7539 10.254 14.414 10.254s12.336-4.293 14.414-10.254c0.50781 1.6055 1.5859 2.957 3.0352 3.8047-3.3164 6.5469-10.066 10.73-17.449 10.73zm15.238-20.379c-0.13281-2.4453-0.84375-4.7344-1.9961-6.7422-0.007813-0.019531-0.015626-0.035157-0.023438-0.054688-0.011719-0.015625-0.023438-0.03125-0.035156-0.046875-2.6484-4.5312-7.5664-7.5859-13.184-7.5859s-10.535 3.0547-13.184 7.5859c-0.011718 0.015625-0.023437 0.03125-0.035156 0.046875-0.007812 0.019531-0.015625 0.035157-0.023438 0.054688-1.1523 2.0078-1.8633 4.2969-1.9961 6.7422-0.91406-1.3633-2.3086-2.3828-3.9648-2.8047 1.7227-9.1289 9.8203-15.902 19.203-15.902s17.48 6.7773 19.203 15.906c-1.6562 0.42188-3.0508 1.4375-3.9648 2.8008zm-15.238 5.4062c-2.5234 0-4.5742-2.0508-4.5742-4.5742 0-2.5195 2.0508-4.5703 4.5742-4.5703s4.5742 2.0508 4.5742 4.5742c0 2.5195-2.0508 4.5703-4.5742 4.5703zm0-11.047c-2.0508 0-3.8789 0.96094-5.0625 2.4531l-6-3.4648c2.4023-3.543 6.4648-5.875 11.062-5.875s8.6602 2.332 11.062 5.875l-6 3.4648c-1.1836-1.4922-3.0117-2.4531-5.0625-2.4531zm-12.016 0.63281 6 3.4648c-0.29297 0.73828-0.45703 1.5352-0.45703 2.375 0 3.2461 2.4023 5.9336 5.5234 6.3945v6.9297c-6.9258-0.48438-12.414-6.2734-12.414-13.32 0-2.0938 0.48438-4.0781 1.3477-5.8438zm12.965 12.238c3.1211-0.46094 5.5234-3.1484 5.5234-6.3945 0-0.83984-0.16406-1.6406-0.45703-2.375l6-3.4648c0.86328 1.7656 1.3477 3.7461 1.3477 5.8398 0 7.0469-5.4883 12.836-12.414 13.324zm36.215-5.6641c-0.32812 1.6562-1.0781 2.832-2.2852 3.5977-3.7109 2.3594-9.4648 3.207-13.641 3.5078-0.74609 0.054688-1.4805-0.058593-2.1758-0.33984-1.5508-0.62891-2.6641-1.9844-2.9805-3.6289-0.058593-0.29688-0.085937-0.60938-0.085937-0.92969 0-2.5117 1.8906-4.6016 4.3984-4.8633h0.007813c0-0.003906 0.003906-0.003906 0.007812-0.003906 0.03125-0.003906 0.066406-0.007812 0.11719-0.011718 1.9766-0.15625 3.8633-0.39063 5.5977-0.70313 0.027344-0.003906 0.050781-0.011718 0.078125-0.015624h0.003906c0.35156-0.058594 0.71094-0.12891 1.0625-0.20313 0.51562-0.10547 0.84375-0.60547 0.73828-1.1211-0.10156-0.51172-0.60156-0.84375-1.1172-0.73828-0.078125 0.015624-0.15625 0.027343-0.23438 0.042968l-2.9922-11.426c-0.13281-0.50391-0.65234-0.80859-1.1602-0.67578-0.50781 0.13281-0.8125 0.65234-0.67969 1.1602l2.9531 11.273c-1.1758 0.1875-2.4141 0.33594-3.6914 0.44922-1.8516-10.062-10.758-17.547-21.086-17.547s-19.234 7.4805-21.086 17.547c-1.2812-0.11328-2.5156-0.26172-3.6953-0.44922l2.9531-11.273c0.13281-0.50781-0.17188-1.0273-0.67969-1.1602-0.50781-0.13281-1.0273 0.17188-1.1602 0.67969l-2.9883 11.422c-0.078125-0.015625-0.15625-0.027344-0.23438-0.042968-0.51562-0.10547-1.0156 0.22656-1.1211 0.73828-0.10547 0.51562 0.22656 1.0195 0.74219 1.1211 0.35547 0.074219 0.71484 0.14063 1.0664 0.20313-0.003906 0 0 0 0 0h0.003906c0.023438 0.003906 0.046875 0.007812 0.070313 0.011718 1.7422 0.3125 3.6289 0.55078 5.6211 0.70703 0.035156 0.003906 0.066406 0.007812 0.097656 0.011718h0.011718 0.007813c2.5078 0.26172 4.3984 2.3555 4.3984 4.8633 0 0.32031-0.03125 0.63281-0.085937 0.93359-0.3125 1.6406-1.4297 2.9961-2.9805 3.625-0.69922 0.28516-1.4336 0.39844-2.1836 0.34375-4.1719-0.30078-9.9258-1.1484-13.637-3.5078-1.207-0.76562-1.9531-1.9414-2.2812-3.5977-1.1914-5.9961 3.6055-16.309 8.5703-23.352 5.7148-8.1094 17.223-10.82 19.816-11.34 2.5039 2.9844 5.1953 4.5664 8.0078 4.6953 0.125 0.003906 0.25 0.007812 0.375 0.007812 2.9414 0 6.0039-1.5859 9.1094-4.7148 2.4805 0.49219 14.113 3.1797 19.871 11.352 4.9648 7.043 9.7617 17.355 8.5742 23.352z"/>
<text x="0.0" y="117.5" font-size="5.0" font-weight="bold" font-family="Arbeit Regular, Helvetica, Arial-Unicode, Arial, Sans-serif" fill="#000000">Created by Nurfajri Aldi</text><text x="0.0" y="122.5" font-size="5.0" font-weight="bold" font-family="Arbeit Regular, Helvetica, Arial-Unicode, Arial, Sans-serif" fill="#000000">from Noun Project</text>
</svg>