<?xml version="1.0" standalone="no"?>
<!DOCTYPE svg PUBLIC "-//W3C//DTD SVG 20010904//EN"
 "http://www.w3.org/TR/2001/REC-SVG-20010904/DTD/svg10.dtd">
<svg version="1.0" xmlns="http://www.w3.org/2000/svg"
 width="1254.000000pt" height="1254.000000pt" viewBox="0 0 1254.000000 1254.000000"
 preserveAspectRatio="xMidYMid meet">

<g transform="translate(0.000000,1254.000000) scale(0.100000,-0.100000)"
fill="#000000" stroke="none">
<path d="M6785 9135 c-49 -7 -182 -24 -295 -38 -347 -44 -573 -90 -860 -172
-612 -177 -1091 -443 -1484 -825 -136 -132 -221 -231 -306 -356 -66 -96 -72
-125 -38 -169 l22 -28 -72 -141 c-158 -311 -363 -702 -375 -712 -7 -7 -66 -22
-132 -34 -299 -54 -872 -186 -1135 -261 -376 -107 -486 -169 -562 -316 -43
-82 -71 -208 -158 -715 -16 -97 -37 -205 -45 -240 -11 -48 -15 -129 -15 -333
0 -263 1 -271 24 -321 49 -105 84 -114 436 -114 234 0 279 2 298 16 20 14 23
14 28 -3 40 -123 106 -226 206 -318 81 -76 154 -119 265 -158 83 -30 97 -32
233 -32 124 0 156 3 220 23 211 66 369 202 468 400 l36 74 66 -8 c97 -12 3728
-14 3768 -2 17 5 37 18 42 28 6 10 10 62 10 114 l0 96 144 0 145 0 6 -57 c8
-77 48 -208 84 -276 120 -229 351 -378 608 -394 343 -22 642 176 758 501 l33
91 57 0 57 0 27 -80 c65 -194 186 -338 360 -428 100 -53 193 -78 306 -84 142
-8 241 13 375 79 92 45 117 63 196 142 76 77 97 106 136 186 26 52 50 111 53
130 10 51 22 60 76 60 l49 0 0 -89 c0 -74 3 -92 21 -115 l20 -26 150 0 c136 0
151 2 169 20 19 19 20 33 20 450 l0 431 -25 24 c-24 25 -26 25 -202 25 l-179
0 -48 49 c-82 84 -119 94 -346 102 -139 4 -211 11 -250 23 -74 23 -264 24
-340 2 -93 -27 -120 -30 -120 -14 0 8 -13 26 -28 41 -22 21 -38 27 -75 27 -45
0 -47 1 -47 28 0 16 2 31 5 33 7 8 196 -10 293 -27 91 -17 93 -17 120 3 58 43
49 112 -18 145 -59 28 -248 47 -630 63 -396 16 -539 18 -565 9 -25 -10 -47
-62 -40 -95 12 -52 44 -63 189 -69 l129 -5 0 -40 c0 -39 0 -40 -41 -46 -44 -6
-78 -29 -87 -60 -10 -29 -215 -27 -322 2 -105 29 -257 29 -367 0 -76 -20 -104
-21 -613 -21 l-533 0 0 1239 0 1240 -26 20 c-24 19 -40 21 -155 21 l-129 0 0
570 0 570 23 4 c56 12 106 13 116 3 8 -8 11 -173 11 -549 l0 -539 25 -24 c13
-14 36 -25 50 -25 14 0 37 11 50 25 l25 24 0 553 0 554 -22 44 c-35 68 -75 90
-162 89 -39 -1 -111 -7 -161 -14z m-105 -815 l0 -620 -1335 0 c-734 0 -1335 3
-1335 6 0 17 125 160 230 264 517 513 1278 840 2221 954 63 8 138 14 167 15
l52 1 0 -620z m310 -1785 l0 -1165 -80 0 -80 0 0 1165 0 1165 80 0 80 0 0
-1165z m-1952 -67 l-3 -1123 -742 -3 -743 -2 -37 40 c-100 112 -291 223 -448
261 -113 28 -295 30 -399 5 -214 -51 -409 -180 -533 -353 l-45 -63 -267 0
c-147 0 -270 2 -273 5 -2 3 0 38 7 78 8 52 15 71 25 69 7 -2 64 9 127 23 165
39 180 51 334 275 137 198 148 224 107 267 -28 30 -44 29 -184 -13 -157 -47
-233 -85 -288 -140 -26 -25 -46 -40 -46 -32 1 38 40 200 58 234 28 55 93 111
166 144 180 81 811 243 1361 349 116 23 227 46 248 53 20 6 39 9 42 6 3 -3 6
-239 5 -524 0 -543 2 -564 43 -572 48 -9 47 -16 47 575 l0 555 -30 30 -31 30
234 457 c128 251 236 464 240 474 6 16 40 17 517 17 l510 0 -2 -1122z m1640
10 l2 -1108 -742 -2 c-409 -2 -753 -2 -765 0 l-22 3 4 1042 c2 573 4 1072 4
1110 l1 67 758 -2 757 -3 3 -1107z m-4694 -670 c-4 -7 -45 -65 -90 -129 -55
-77 -93 -120 -111 -127 -53 -20 -104 -34 -109 -29 -6 6 40 131 60 162 24 36
86 74 174 106 42 15 78 28 80 28 2 1 0 -5 -4 -11z m1039 -324 c214 -48 406
-203 511 -411 57 -113 78 -214 83 -400 l6 -173 -27 0 -26 0 6 73 c17 205 -79
444 -240 594 -155 146 -337 212 -550 200 -262 -14 -478 -151 -610 -387 -42
-76 -45 -70 -12 26 80 236 275 417 511 475 92 23 254 24 348 3z m6434 -31 c-1
-21 2 -48 6 -60 8 -23 8 -23 -102 -23 l-110 0 17 29 c14 25 15 35 5 60 l-11
31 99 0 99 0 -3 -37z m-6500 -258 c380 -90 572 -505 396 -857 -48 -95 -153
-201 -249 -251 -232 -120 -515 -77 -694 104 -116 117 -170 249 -170 419 0 180
49 299 175 426 59 59 98 90 148 113 123 58 269 75 394 46z m5658 0 c159 -41
306 -158 375 -299 51 -104 70 -180 70 -281 0 -328 -265 -595 -590 -595 -223 0
-433 131 -528 330 -47 100 -62 163 -62 268 0 166 58 300 180 422 79 80 158
126 261 154 72 19 220 20 294 1z m1589 0 c136 -35 262 -127 341 -245 184 -277
112 -647 -160 -829 -277 -185 -645 -108 -826 172 -92 143 -118 339 -65 503 60
187 201 329 385 389 92 29 234 34 325 10z m-3877 -5 l503 0 0 -340 0 -340
-1524 0 -1523 0 -7 46 c-3 26 -6 97 -6 158 -1 61 -7 145 -14 186 -14 78 -65
227 -90 265 -8 13 -12 26 -8 30 4 4 493 5 1086 1 594 -3 1306 -6 1583 -6z
m953 -355 l0 -335 -145 0 -145 0 0 335 0 335 145 0 145 0 0 -335z m670 325 c0
-5 -4 -10 -8 -10 -5 0 -23 -20 -42 -45 l-34 -45 -218 0 -218 0 0 48 c0 27 3
52 7 55 11 11 513 8 513 -3z m1536 -57 c-29 -36 -70 -97 -90 -134 -42 -77 -86
-237 -86 -310 l0 -49 -44 0 -43 0 -6 68 c-4 37 -14 94 -22 127 -23 90 -97 233
-154 297 -28 31 -51 59 -51 62 0 3 124 6 275 6 l275 0 -54 -67z m1181 42 c100
-50 197 -243 218 -435 3 -30 8 -65 11 -78 4 -22 2 -23 -43 -20 l-47 3 -3 45
c-5 75 -23 160 -50 233 -28 75 -104 197 -147 236 -51 48 -19 56 61 16z m-8632
-32 c-55 -137 -75 -251 -75 -434 l0 -149 -218 0 c-156 0 -221 3 -230 12 -16
16 -17 480 -1 544 l11 44 260 0 c244 0 260 -1 253 -17z m9095 -413 l0 -320
-33 0 -34 0 -6 148 c-8 175 -27 302 -62 403 -14 41 -25 77 -25 82 0 4 36 7 80
7 l80 0 0 -320z m-3360 194 c0 -3 -9 -37 -21 -75 l-21 -70 -147 3 -146 3 -3
73 -4 72 171 0 c94 0 171 -3 171 -6z"/>
<path d="M4109 7407 c-44 -22 -46 -25 -231 -396 -212 -421 -214 -427 -154
-487 l34 -34 510 0 509 0 33 23 c19 12 43 38 54 57 20 34 21 50 21 400 0 330
-2 368 -18 397 -33 62 -42 63 -395 63 -311 0 -320 -1 -363 -23z m639 -436 c2
-223 -1 -318 -9 -327 -9 -12 -91 -14 -450 -14 -242 0 -439 2 -439 4 0 9 311
630 322 643 8 11 69 13 292 11 l281 -3 3 -314z"/>
<path d="M4589 5861 c-23 -23 -29 -38 -29 -71 0 -33 6 -48 29 -71 l29 -29 137
0 137 0 29 29 c23 23 29 38 29 71 0 33 -6 48 -29 71 l-29 29 -137 0 -137 0
-29 -29z m261 -71 c0 -6 -38 -10 -95 -10 -57 0 -95 4 -95 10 0 6 38 10 95 10
57 0 95 -4 95 -10z"/>
<path d="M5628 7395 c-8 -19 -8 -28 2 -40 11 -13 59 -15 347 -15 l334 0 24
-25 25 -24 0 -796 0 -796 -25 -24 -24 -25 -335 0 c-325 0 -336 -1 -346 -20 -8
-14 -8 -26 0 -40 10 -19 21 -20 358 -20 329 0 349 1 380 20 18 11 41 34 52 52
19 32 20 52 20 853 0 801 -1 821 -20 853 -11 18 -34 41 -52 52 -31 19 -51 20
-381 20 l-347 0 -12 -25z"/>
<path d="M2716 5084 c-88 -21 -170 -70 -235 -140 -98 -104 -139 -223 -128
-372 23 -338 380 -540 687 -390 81 39 177 133 213 208 122 251 27 539 -217
659 -103 50 -210 62 -320 35z m252 -183 c65 -33 118 -87 149 -149 36 -74 39
-191 6 -263 -29 -64 -87 -126 -147 -156 -73 -38 -189 -43 -269 -13 -155 58
-236 241 -180 406 23 69 121 167 189 188 71 23 196 16 252 -13z"/>
<path d="M8353 5085 c-85 -23 -143 -56 -208 -117 -204 -190 -204 -514 -1 -706
185 -175 479 -171 660 10 266 267 144 718 -219 813 -72 18 -163 18 -232 0z
m253 -180 c116 -56 190 -182 181 -305 -11 -170 -129 -288 -298 -298 -102 -6
-162 14 -233 79 -75 69 -101 129 -100 239 0 68 5 95 23 132 78 161 270 229
427 153z"/>
<path d="M9943 5086 c-175 -44 -311 -185 -353 -365 -16 -70 -8 -200 18 -273
55 -157 203 -280 371 -310 257 -44 512 144 551 407 34 224 -95 445 -307 525
-72 27 -206 35 -280 16z m210 -166 c83 -26 155 -88 194 -168 37 -76 39 -192 4
-263 -35 -73 -86 -125 -155 -159 -84 -42 -188 -44 -271 -6 -230 105 -252 437
-37 563 50 30 120 51 168 52 18 1 61 -8 97 -19z"/>
<path d="M4033 4900 c-43 -17 -56 -72 -25 -110 l18 -22 504 1 c499 1 505 2
523 22 26 32 22 74 -9 98 -26 21 -36 21 -508 20 -264 0 -491 -4 -503 -9z"/>
</g>
</svg>
