<?xml version="1.0" standalone="no"?>
<!DOCTYPE svg PUBLIC "-//W3C//DTD SVG 20010904//EN"
 "http://www.w3.org/TR/2001/REC-SVG-20010904/DTD/svg10.dtd">
<svg version="1.0" xmlns="http://www.w3.org/2000/svg"
 width="1254.000000pt" height="1254.000000pt" viewBox="0 0 1254.000000 1254.000000"
 preserveAspectRatio="xMidYMid meet">

<g transform="translate(0.000000,1254.000000) scale(0.100000,-0.100000)"
fill="#000000" stroke="none">
<path d="M5012 7960 c-23 -17 -42 -35 -42 -41 0 -7 -96 -9 -302 -8 -331 2
-338 1 -407 -57 -19 -15 -44 -51 -57 -79 l-24 -50 0 -884 0 -883 34 -34 c29
-29 41 -34 80 -34 43 0 46 -2 46 -25 0 -34 25 -82 49 -95 11 -6 89 -10 179
-10 l159 0 7 -47 c4 -32 15 -57 35 -78 23 -24 28 -37 24 -66 l-5 -35 -56 20
c-43 15 -81 20 -152 20 -83 0 -103 -3 -160 -29 -60 -27 -76 -29 -205 -33 -111
-2 -142 0 -150 11 -21 29 -56 37 -155 37 l-102 0 6 838 c3 460 9 977 12 1149
l6 312 -27 27 -27 27 -146 -7 c-638 -31 -1125 -200 -1517 -527 -153 -128 -285
-286 -285 -342 0 -17 -22 -73 -49 -126 -27 -53 -93 -194 -146 -314 -77 -169
-103 -218 -119 -222 -133 -29 -593 -145 -701 -176 -275 -81 -306 -114 -349
-364 -45 -267 -66 -466 -66 -636 l0 -161 34 -34 34 -34 199 0 c128 0 203 4
210 11 7 7 19 -9 41 -55 83 -178 282 -285 472 -255 142 22 275 119 335 244 16
33 30 62 32 64 1 2 11 -3 21 -12 17 -16 109 -17 1140 -17 736 0 1123 3 1127
10 3 6 30 10 60 10 l54 0 24 -54 c28 -61 91 -134 153 -176 141 -98 355 -94
503 8 58 39 132 130 153 187 18 50 39 44 71 -20 31 -64 93 -134 154 -177 133
-91 338 -94 475 -6 66 41 153 138 173 192 l18 46 67 0 c103 0 100 -8 100 268
0 143 -4 233 -10 237 -32 20 7 25 194 25 l204 0 116 -125 117 -126 -2 -69 c-2
-74 9 -100 42 -100 17 0 19 -8 19 -65 0 -65 0 -65 -28 -65 -35 0 -62 -27 -62
-61 0 -45 14 -49 171 -49 141 0 149 1 163 22 9 12 16 28 16 35 0 22 -39 53
-65 53 -24 0 -25 3 -25 55 l0 55 98 99 c53 54 155 154 225 220 l128 121 1154
0 1155 0 0 -89 c0 -91 5 -105 45 -113 12 -2 18 -10 16 -19 -30 -109 -34 -145
-22 -218 24 -158 118 -289 254 -352 68 -32 78 -34 182 -34 103 0 114 2 177 32
110 52 197 147 234 257 l16 48 24 -58 c69 -170 208 -273 380 -282 300 -16 526
266 449 561 -8 32 -15 60 -15 62 0 3 29 5 65 5 l65 0 0 -114 c0 -150 -4 -146
154 -146 106 0 125 3 139 18 14 15 17 50 19 228 l3 209 65 3 c92 3 108 8 125
42 13 25 15 173 15 1205 0 1251 1 1221 -45 1239 -9 3 -1577 6 -3484 6 l-3468
0 -41 -30z m93 -1150 l0 -1075 -55 0 -55 0 -3 1069 c-2 849 0 1071 10 1078 7
5 33 7 58 6 l45 -3 0 -1075z m6835 0 l0 -1080 -3382 2 -3383 3 -3 1078 -2
1077 3385 0 3385 0 0 -1080z m-7052 93 l-3 -908 -300 0 -300 0 -3 432 -2 433
222 2 223 3 3 24 c2 13 -1 28 -6 33 -6 6 -94 10 -226 9 l-216 -2 0 31 0 31
216 -2 c132 -1 220 3 226 9 5 5 8 20 6 33 l-3 24 -222 3 -223 2 0 30 0 30 223
2 222 3 3 23 c7 51 -4 53 -232 51 l-211 -1 -3 31 -3 31 223 2 223 3 3 27 c5
45 -16 48 -242 42 l-206 -5 0 30 0 31 216 2 c194 3 218 5 228 21 8 12 8 22 0
35 -10 15 -34 17 -228 20 l-216 2 0 25 0 25 223 2 222 3 0 30 0 30 -224 3
-223 2 4 65 c5 74 25 110 79 137 30 16 66 18 282 18 l247 0 -2 -907z m-1161
665 c-4 -128 -7 -295 -7 -370 l0 -138 -880 0 c-484 0 -880 3 -880 6 0 15 113
134 195 207 293 257 693 430 1145 497 167 24 188 26 324 28 l109 2 -6 -232z
m-1097 -1287 c0 -396 -3 -726 -6 -735 -5 -14 -53 -16 -430 -16 l-424 0 0 399
c0 220 -3 406 -6 415 -5 12 -20 16 -60 16 -30 0 -54 4 -54 8 0 14 149 343 222
490 l71 142 343 0 344 0 0 -719z m1080 -1 l0 -720 -510 0 -510 0 0 720 0 720
510 0 510 0 0 -720z m-2000 -331 l0 -361 -47 35 c-110 79 -219 117 -343 117
-172 0 -329 -79 -425 -213 l-40 -56 -167 -1 c-189 0 -174 -8 -162 83 6 44 8
46 48 52 93 14 144 35 175 70 50 57 151 213 151 233 0 25 -19 42 -49 42 -67 0
-253 -87 -268 -126 -3 -8 -9 -14 -13 -14 -4 0 0 36 9 80 19 84 41 119 93 146
70 36 340 112 693 194 121 28 229 57 240 65 11 8 39 14 63 14 l42 1 0 -361z
m3178 -76 c-3 -16 -23 -18 -217 -21 -208 -2 -241 2 -241 29 0 5 104 9 231 9
214 0 230 -1 227 -17z m-4164 -99 c-37 -53 -72 -78 -100 -72 -10 2 -9 13 5 44
15 32 30 47 72 67 29 15 55 25 57 22 3 -2 -13 -30 -34 -61z m4166 -59 c0 -27
9 -63 21 -86 23 -45 21 -54 -10 -44 -15 4 -21 15 -21 34 0 17 -8 34 -20 42
-12 9 -22 31 -26 57 -7 42 -6 42 25 42 30 0 31 -1 31 -45z m7050 -80 l0 -35
-3385 0 -3385 0 0 33 c0 19 2 36 4 38 2 2 1526 3 3385 1 l3381 -2 0 -35z
m-6830 0 c0 -30 -3 -35 -24 -35 -24 0 -86 44 -86 61 0 5 25 9 55 9 l55 0 0
-35z m-3635 -25 c141 -48 263 -188 280 -321 l6 -44 -19 46 c-151 368 -647 387
-818 32 -20 -40 -37 -73 -39 -73 -2 0 2 21 9 48 31 116 120 234 216 286 104
57 246 67 365 26z m5193 -152 c2 -21 0 -38 -4 -38 -11 0 -74 62 -74 73 0 4 17
7 38 5 35 -3 37 -5 40 -40z m182 -123 l0 -165 -40 0 -40 0 0 165 0 165 40 0
40 0 0 -165z m233 55 c-62 -61 -116 -110 -120 -110 -10 0 -17 195 -8 210 4 6
53 10 123 10 l117 -1 -112 -109z m4445 58 l3 -48 -35 0 -36 0 0 51 0 50 33 -3
c31 -3 32 -5 35 -50z m212 -123 l0 -175 -55 0 -55 0 0 175 0 175 55 0 55 0 0
-175z m-10274 121 c77 -35 146 -104 180 -179 23 -51 28 -76 28 -142 0 -69 -4
-90 -31 -146 -41 -89 -83 -133 -161 -171 -61 -30 -74 -33 -162 -33 -83 0 -102
3 -151 28 -69 33 -132 99 -167 175 -23 48 -27 70 -27 142 1 71 5 95 28 145 29
62 89 132 143 165 86 54 222 61 320 16z m3259 0 c70 -32 140 -102 173 -174 23
-49 27 -70 27 -152 0 -87 -3 -100 -32 -155 -36 -71 -105 -138 -171 -168 -38
-18 -66 -22 -142 -22 -85 0 -101 3 -153 29 -192 98 -253 338 -131 523 88 134
280 188 429 119z m881 -1 c67 -33 141 -108 173 -175 22 -47 26 -69 26 -150 0
-83 -3 -102 -28 -151 -32 -67 -109 -142 -175 -172 -38 -18 -66 -22 -142 -22
-84 0 -102 3 -152 28 -71 35 -140 110 -169 185 -29 73 -31 185 -5 260 33 97
144 194 253 222 59 14 161 3 219 -25z m4671 -6 c211 -100 265 -388 105 -558
-70 -75 -145 -106 -252 -106 -73 0 -93 4 -141 28 -69 34 -132 99 -167 175 -38
81 -38 202 0 284 65 141 203 225 348 211 25 -3 73 -18 107 -34z m813 19 c96
-28 181 -112 221 -216 30 -82 24 -197 -16 -276 -34 -67 -107 -139 -173 -169
-73 -34 -198 -31 -274 6 -216 106 -264 396 -95 570 89 91 212 122 337 85z
m-8455 2 c4 -7 238 -10 671 -10 l664 0 0 -195 0 -195 -1052 0 -1053 0 -1 118
c0 114 -12 169 -58 275 -8 16 15 17 407 17 267 0 418 -4 422 -10z m-1819 -72
c-23 -77 -36 -164 -36 -236 l0 -83 -137 3 -138 3 -3 135 c-2 74 0 150 3 168
l6 32 156 0 155 0 -6 -22z m3389 -16 c-36 -55 -66 -148 -72 -229 -6 -72 -6
-73 -34 -73 l-29 0 0 170 0 170 80 0 80 0 -25 -38z m905 29 c0 -6 -5 -13 -11
-17 -15 -9 -69 -124 -69 -147 0 -29 -17 -10 -24 26 -3 19 -22 59 -40 90 l-35
57 90 0 c49 0 89 -4 89 -9z m840 -161 c0 -159 -1 -170 -19 -170 -16 0 -19 11
-23 85 -6 85 -9 93 -86 248 -2 4 26 7 62 7 l66 0 0 -170z m4639 53 c0 -5 -6
-24 -13 -43 l-13 -34 -11 33 c-17 47 -15 51 13 51 14 0 25 -3 24 -7z m-3751
-281 c3 -61 2 -62 -23 -62 -24 0 -25 2 -25 58 0 63 5 74 30 70 11 -2 16 -19
18 -66z"/>
<path d="M5487 5892 c-23 -26 -21 -58 5 -76 17 -12 50 -16 145 -16 110 0 125
2 143 20 25 25 26 52 2 73 -15 14 -42 17 -149 17 -113 0 -132 -2 -146 -18z"/>
<path d="M6259 5889 c-22 -22 -19 -55 9 -76 25 -20 251 -18 280 3 27 18 29 55
4 77 -15 14 -41 17 -145 17 -115 0 -129 -2 -148 -21z"/>
<path d="M7037 5892 c-23 -26 -21 -58 5 -76 17 -12 50 -16 138 -16 88 0 121 4
138 16 28 20 30 69 3 84 -11 5 -76 10 -144 10 -107 0 -126 -2 -140 -18z"/>
<path d="M7807 5892 c-24 -27 -21 -59 8 -78 20 -13 47 -15 150 -12 112 3 128
5 141 22 19 27 18 42 -6 66 -18 18 -33 20 -148 20 -112 0 -131 -2 -145 -18z"/>
<path d="M8588 5899 c-26 -15 -23 -64 4 -83 17 -12 49 -16 135 -16 141 0 163
7 163 54 0 25 -6 38 -19 46 -25 13 -260 13 -283 -1z"/>
<path d="M9368 5899 c-12 -6 -18 -22 -18 -45 0 -28 5 -36 28 -45 33 -13 267
-8 280 6 22 23 23 54 3 74 -19 19 -33 21 -148 21 -71 0 -136 -5 -145 -11z"/>
<path d="M10146 5894 c-21 -21 -20 -57 2 -77 15 -14 41 -17 135 -17 145 0 167
7 167 54 0 25 -6 38 -19 46 -11 5 -76 10 -145 10 -100 0 -128 -3 -140 -16z"/>
<path d="M10917 5892 c-23 -26 -21 -58 5 -76 17 -12 49 -16 135 -16 141 0 163
7 163 54 0 25 -6 38 -19 46 -11 5 -76 10 -144 10 -107 0 -126 -2 -140 -18z"/>
<path d="M11690 5890 c-24 -24 -25 -39 -6 -66 12 -16 29 -20 99 -22 92 -4 117
7 117 53 0 43 -24 55 -111 55 -66 0 -82 -3 -99 -20z"/>
<path d="M4512 6370 c-32 -14 -44 -54 -40 -142 4 -104 10 -109 126 -111 125
-2 132 5 132 129 0 88 -1 94 -26 113 -22 17 -40 21 -98 20 -39 0 -81 -4 -94
-9z m158 -65 c14 -9 12 -109 -2 -123 -12 -12 -95 -16 -122 -6 -12 5 -16 21
-16 68 0 35 2 65 5 67 6 7 124 1 135 -6z"/>
<path d="M2010 6862 c-39 -19 -64 -64 -164 -292 -71 -164 -78 -204 -43 -246
l25 -29 290 -3 c241 -2 297 0 327 12 60 26 66 53 63 302 l-3 216 -33 29 -32
29 -198 0 c-168 0 -202 -3 -232 -18z m392 -114 c2 -13 3 -95 3 -183 l0 -160
-257 -3 c-142 -1 -258 0 -258 2 0 2 30 71 66 153 37 81 73 163 80 181 l14 32
174 0 c172 0 174 0 178 -22z"/>
<path d="M2326 5904 c-22 -21 -20 -77 2 -97 14 -13 39 -17 110 -17 83 0 92 2
106 22 9 12 16 32 16 43 0 11 -7 31 -16 43 -14 20 -23 22 -109 22 -72 0 -97
-4 -109 -16z m174 -49 c0 -12 -14 -15 -70 -15 -56 0 -70 3 -70 15 0 12 14 15
70 15 56 0 70 -3 70 -15z"/>
<path d="M3000 6855 c-10 -12 -10 -18 0 -30 10 -12 49 -15 229 -15 155 0 220
-3 229 -12 18 -18 17 -1013 0 -1025 -7 -4 -111 -8 -230 -8 -223 0 -248 -4
-235 -39 6 -14 37 -16 242 -16 l237 0 29 29 29 29 0 522 0 522 -29 29 -29 29
-230 0 c-192 0 -232 -2 -242 -15z"/>
<path d="M1232 5403 c-66 -20 -142 -86 -173 -151 -32 -65 -33 -187 -3 -253 45
-97 136 -159 245 -167 122 -9 230 52 286 162 35 67 38 177 6 247 -62 138 -215
207 -361 162z m171 -104 c32 -17 77 -60 93 -91 23 -45 18 -134 -11 -184 -27
-45 -106 -94 -154 -94 -107 0 -200 89 -201 191 0 56 45 135 93 164 46 27 140
35 180 14z"/>
<path d="M4490 5404 c-204 -74 -265 -322 -121 -486 67 -76 204 -109 309 -74
189 63 255 318 120 471 -77 88 -207 125 -308 89z m180 -114 c116 -59 133 -227
31 -313 -139 -117 -349 16 -301 192 13 49 62 109 105 127 45 20 120 17 165 -6z"/>
<path d="M5385 5407 c-67 -23 -101 -44 -143 -92 -54 -62 -76 -128 -70 -214 6
-80 33 -137 94 -196 80 -78 208 -98 314 -49 73 34 107 67 141 139 51 106 37
223 -37 320 -56 74 -210 121 -299 92z m165 -117 c80 -41 119 -147 86 -235 -43
-111 -181 -157 -278 -91 -118 79 -110 250 17 327 41 26 124 25 175 -1z"/>
<path d="M10083 5409 c-88 -17 -159 -72 -204 -159 -20 -37 -24 -60 -24 -130 0
-76 3 -91 30 -139 112 -203 388 -203 500 0 27 48 30 63 30 139 0 72 -4 92 -27
135 -61 116 -183 178 -305 154z m120 -113 c41 -17 91 -74 107 -121 24 -74 -9
-165 -77 -211 -128 -86 -301 27 -279 182 16 123 138 197 249 150z"/>
<path d="M10916 5404 c-132 -41 -208 -146 -208 -286 0 -279 350 -393 515 -168
58 80 70 201 28 296 -56 126 -208 198 -335 158z m153 -112 c19 -9 48 -34 65
-55 41 -51 49 -143 17 -204 -86 -171 -341 -107 -341 85 0 142 139 236 259 174z"/>
<path d="M1998 5289 c-32 -18 -41 -48 -23 -75 l15 -24 270 0 c291 0 300 2 300
55 0 51 -23 55 -295 55 -150 0 -257 -5 -267 -11z"/>
</g>
</svg>
