<?xml version="1.0" standalone="no"?>
<!DOCTYPE svg PUBLIC "-//W3C//DTD SVG 20010904//EN"
 "http://www.w3.org/TR/2001/REC-SVG-20010904/DTD/svg10.dtd">
<svg version="1.0" xmlns="http://www.w3.org/2000/svg"
 width="1254.000000pt" height="1254.000000pt" viewBox="0 0 1254.000000 1254.000000"
 preserveAspectRatio="xMidYMid meet">

<g transform="translate(0.000000,1254.000000) scale(0.100000,-0.100000)"
fill="#000000" stroke="none">
<path d="M3650 7904 c-19 -2 -91 -9 -160 -15 -225 -19 -478 -79 -696 -164
-299 -116 -513 -261 -763 -514 -162 -164 -181 -190 -175 -235 3 -25 -27 -92
-149 -330 l-152 -300 -50 -12 c-27 -6 -124 -29 -215 -49 -193 -44 -515 -134
-581 -163 -94 -41 -144 -105 -169 -217 -34 -150 -81 -503 -87 -645 -6 -178 2
-215 59 -250 31 -19 47 -20 215 -18 l181 3 23 -54 c50 -120 196 -228 339 -250
186 -30 384 75 468 246 26 53 35 62 47 43 9 -14 2151 -14 2160 0 3 6 24 10 45
10 37 0 40 -2 72 -62 36 -69 111 -147 175 -185 133 -78 324 -73 468 12 57 33
135 120 165 184 20 42 29 51 50 51 21 0 31 -10 53 -56 84 -170 283 -274 472
-244 141 22 281 121 339 243 l28 57 55 0 c44 0 58 4 79 25 l26 26 -4 233 c-2
179 -6 237 -17 249 -11 15 -37 17 -171 17 -157 0 -158 0 -226 33 -63 29 -77
32 -164 32 -52 0 -108 -2 -125 -4 -16 -1 -65 0 -107 4 -69 7 -77 10 -82 31 -5
20 -13 24 -41 24 -19 0 -35 5 -35 10 0 6 16 10 35 10 28 0 37 5 50 30 14 26
20 29 72 32 57 3 58 4 61 34 2 20 -3 38 -14 49 -16 15 -50 16 -428 11 -226 -3
-485 -9 -576 -14 -164 -7 -165 -7 -211 -39 -28 -20 -55 -49 -68 -75 l-21 -43
0 1073 c0 1190 3 1129 -64 1157 -33 14 -99 17 -186 9z m142 -114 c2 -5 2 -163
0 -350 l-3 -340 -856 0 -857 0 54 56 c114 118 191 181 335 277 325 215 802
355 1247 365 43 1 78 -2 80 -8z m-1092 -1495 l0 -705 -460 0 -460 0 0 354 0
355 -26 20 c-15 12 -37 21 -50 21 -13 0 -24 2 -24 5 0 11 285 582 308 618 l25
37 343 0 344 0 0 -705z m1090 5 l0 -700 -500 0 -500 0 0 693 c0 382 3 697 7
700 3 4 228 7 500 7 l493 0 0 -700z m-2096 -357 c1 -172 -2 -313 -7 -313 -4 0
-25 13 -45 30 -65 51 -163 82 -282 88 -95 4 -113 2 -185 -23 -104 -34 -161
-72 -239 -156 l-64 -69 -146 0 -145 0 5 33 c9 52 11 54 53 61 106 17 162 65
253 218 36 60 39 72 30 93 -9 19 -19 25 -42 25 -37 0 -153 -43 -202 -75 -21
-14 -39 -25 -41 -25 -9 0 13 91 28 120 9 17 30 40 48 50 69 42 333 118 710
205 104 24 192 46 195 50 3 3 22 5 41 3 l34 -3 1 -312z m-936 -179 c-50 -70
-102 -100 -91 -51 7 28 30 55 68 78 51 32 59 22 23 -27z m3750 -59 c9 -19 19
-25 42 -25 40 0 38 -18 -2 -22 -25 -2 -34 -8 -36 -25 -3 -21 -9 -23 -55 -23
-62 0 -136 -19 -195 -49 -38 -19 -55 -21 -165 -19 -105 3 -122 5 -125 20 -5
25 46 126 71 141 20 11 110 17 388 25 61 2 67 0 77 -23z m-3088 -65 c132 -25
253 -118 315 -243 19 -38 35 -79 35 -91 0 -13 -10 0 -25 32 -38 82 -141 183
-226 222 -123 57 -267 52 -393 -12 -67 -34 -153 -125 -187 -196 -17 -35 -33
-61 -37 -58 -3 3 13 43 36 88 97 197 283 296 482 258z m3194 -166 c62 -30 133
-100 164 -160 28 -55 45 -149 39 -207 -20 -164 -168 -304 -333 -315 -213 -14
-391 171 -371 385 24 249 284 404 501 297z m914 0 c65 -32 128 -94 168 -167
39 -72 46 -205 15 -287 -30 -79 -98 -152 -179 -192 -60 -30 -75 -33 -157 -33
-84 0 -95 2 -153 34 -127 69 -195 182 -195 321 0 165 95 292 258 347 63 21
175 10 243 -23z m-4056 -2 c61 -27 144 -104 173 -162 91 -179 18 -393 -163
-482 -59 -29 -76 -33 -147 -33 -67 0 -90 5 -142 29 -75 34 -134 95 -171 174
-23 49 -27 70 -27 147 0 76 4 99 26 145 45 96 111 156 212 192 67 24 173 20
239 -10z m1876 19 l512 -1 0 -205 0 -205 -990 0 -990 0 0 103 c0 110 -14 177
-56 259 -13 26 -24 49 -24 52 0 2 233 3 518 1 284 -1 748 -3 1030 -4z m752
-56 c0 -3 -13 -26 -29 -52 -39 -64 -61 -143 -61 -220 0 -56 -2 -63 -20 -63
-19 0 -20 7 -20 170 l0 170 65 0 c36 0 65 -2 65 -5z m908 -2 c-2 -5 -17 -35
-35 -68 -17 -33 -37 -81 -44 -105 l-12 -45 -9 39 c-4 21 -23 68 -41 105 -17
36 -33 69 -35 74 -2 4 38 7 88 7 50 0 90 -3 88 -7z m852 -163 c0 -144 -2 -170
-15 -170 -12 0 -15 14 -15 64 0 74 -29 175 -65 228 -14 20 -25 39 -25 42 0 4
27 6 60 6 l60 0 0 -170z m-5025 133 c-28 -66 -37 -119 -39 -206 l-1 -98 -115
3 -115 3 -3 135 c-4 197 -17 180 144 180 126 0 136 -1 129 -17z"/>
<path d="M2095 6875 c-44 -23 -58 -43 -105 -152 -23 -54 -65 -146 -92 -205
-53 -114 -55 -139 -15 -176 21 -19 38 -20 330 -24 l309 -3 29 33 29 32 0 225
c0 222 0 224 -24 252 l-24 28 -204 3 c-168 2 -208 0 -233 -13z m385 -270 l0
-175 -152 -2 c-155 -3 -340 1 -346 7 -4 4 124 291 144 323 14 21 19 22 184 22
l170 0 0 -175z"/>
<path d="M2424 5922 c-16 -11 -34 -48 -34 -72 0 -11 11 -32 25 -45 21 -22 33
-25 103 -25 97 0 123 16 125 72 2 63 -21 78 -122 78 -47 0 -91 -4 -97 -8z
m124 -69 c-15 -2 -42 -2 -60 0 -18 2 -6 4 27 4 33 0 48 -2 33 -4z"/>
<path d="M3072 6888 c-16 -16 -15 -55 1 -65 6 -4 111 -10 232 -13 l220 -5 3
-499 c1 -356 -1 -503 -9 -512 -9 -11 -61 -14 -226 -16 -193 -3 -217 -5 -227
-20 -8 -13 -8 -23 0 -35 10 -16 35 -18 243 -21 l233 -2 34 34 34 34 0 532 c0
345 -4 538 -10 551 -24 44 -56 49 -293 49 -160 0 -226 -3 -235 -12z"/>
<path d="M4380 5431 c-77 -24 -137 -76 -177 -155 -22 -42 -26 -64 -26 -131 0
-66 4 -88 25 -130 31 -59 76 -104 138 -136 63 -33 174 -33 247 0 105 47 167
147 167 271 1 94 -25 151 -96 215 -72 65 -190 93 -278 66z m169 -119 c123 -62
136 -234 25 -319 -29 -21 -49 -28 -98 -31 -73 -4 -115 15 -160 71 -71 89 -31
244 74 286 40 16 122 13 159 -7z"/>
<path d="M5277 5426 c-73 -27 -140 -93 -172 -169 -24 -58 -20 -171 9 -233 30
-64 85 -120 145 -148 68 -30 179 -29 245 3 105 52 166 153 166 275 0 109 -61
205 -164 258 -52 27 -174 35 -229 14z m176 -110 c67 -28 107 -93 107 -171 0
-55 -14 -92 -48 -129 -102 -108 -290 -52 -317 95 -8 42 9 113 37 152 42 59
147 85 221 53z"/>
<path d="M1237 5426 c-114 -41 -187 -150 -187 -280 0 -119 50 -205 151 -261
48 -26 63 -30 134 -29 66 0 89 5 130 26 106 56 160 145 160 268 -1 93 -25 149
-94 213 -75 70 -199 97 -294 63z m181 -110 c31 -16 74 -61 91 -93 16 -32 13
-120 -5 -159 -36 -76 -133 -124 -210 -103 -108 30 -167 137 -132 240 28 84 88
128 176 129 29 0 65 -6 80 -14z"/>
<path d="M2066 5294 c-19 -19 -20 -44 -3 -68 12 -17 35 -19 248 -22 258 -4
281 0 287 49 7 56 2 57 -269 57 -212 0 -250 -2 -263 -16z"/>
<path d="M4429 6481 l-29 -29 0 -192 c0 -187 1 -191 23 -214 16 -16 41 -26 75
-31 l52 -7 0 -43 c0 -73 7 -75 272 -75 223 0 227 0 242 22 9 12 16 39 16 60 0
38 0 38 43 39 23 0 242 0 487 0 l445 0 55 -28 c80 -41 134 -118 193 -274 26
-69 47 -136 47 -150 0 -14 9 -65 20 -114 10 -50 33 -166 50 -260 17 -93 36
-185 41 -203 22 -67 -104 -62 1731 -62 1305 0 1668 3 1688 13 14 7 56 59 94
116 l70 103 19 -26 c13 -19 28 -26 51 -26 l32 0 13 -74 c16 -99 49 -162 121
-230 68 -65 119 -91 210 -105 185 -30 377 80 437 250 10 27 20 49 23 49 3 0
11 -20 17 -43 16 -58 90 -154 150 -194 75 -50 127 -66 223 -66 144 1 251 57
330 175 50 75 70 142 70 231 0 62 3 71 29 97 l29 29 6 -37 c3 -20 6 -78 6
-128 0 -121 3 -124 141 -124 57 0 111 5 119 10 12 7 17 44 23 172 23 485 21
514 -28 536 -36 17 -1915 17 -1983 1 -41 -10 -61 -26 -167 -135 l-120 -124
-1459 2 -1460 3 -31 130 c-56 226 -233 736 -285 820 -27 44 -99 109 -152 137
l-43 23 -953 3 -953 2 -30 -29z m1908 -82 c46 -17 100 -58 127 -97 29 -43 135
-318 200 -522 25 -78 46 -144 46 -146 0 -2 -60 -4 -134 -4 l-134 0 -46 119
c-49 124 -99 217 -144 264 -15 16 -61 45 -101 65 l-75 37 -788 3 -788 3 0 138
c0 76 3 141 7 144 11 12 1799 8 1830 -4z m-1439 -396 c-43 -2 -113 -2 -155 0
-43 1 -8 3 77 3 85 0 120 -2 78 -3z m7112 -481 c0 -16 -3 -70 -6 -120 l-7 -92
-52 0 c-49 0 -53 2 -76 37 -13 21 -39 48 -58 60 -31 21 -46 23 -155 23 -93 1
-134 5 -176 20 -76 27 -201 27 -277 0 -50 -17 -83 -20 -258 -20 -181 0 -205 2
-255 21 -75 30 -191 30 -277 0 -46 -15 -87 -21 -153 -21 -132 0 -146 -10 -262
-172 -52 -73 -109 -154 -127 -180 l-32 -48 -1644 0 c-905 0 -1645 2 -1645 4 0
6 -79 435 -86 469 l-6 27 141 0 140 0 10 -38 c6 -21 14 -52 17 -70 6 -32 6
-32 -35 -32 -28 0 -47 -6 -61 -20 -23 -23 -25 -38 -7 -62 12 -15 97 -17 1113
-19 604 -1 1317 -1 1583 -1 l484 2 126 130 126 130 958 0 957 0 0 -28z m-1324
-172 c52 -25 119 -96 145 -153 44 -98 16 -237 -65 -320 -64 -64 -108 -82 -211
-82 -102 0 -151 18 -217 82 -106 103 -111 300 -10 406 88 92 245 121 358 67z
m791 -6 c187 -91 218 -338 61 -479 -190 -170 -491 -38 -492 215 0 220 231 362
431 264z m-513 -141 c-8 -33 -24 -54 -24 -32 0 7 -3 24 -6 37 -5 18 -2 22 15
22 18 0 20 -4 15 -27z m1036 -84 l0 -90 -47 3 -48 3 -1 80 c0 44 1 83 3 88 2
4 24 7 49 7 l44 0 0 -91z"/>
<path d="M4783 6330 c-44 -18 -56 -77 -23 -110 26 -26 90 -27 113 -2 17 19 22
68 9 88 -9 14 -47 34 -64 33 -7 0 -23 -4 -35 -9z"/>
<path d="M7268 5199 c-24 -13 -23 -61 0 -82 15 -14 40 -17 130 -17 99 0 114 2
132 20 25 25 26 52 2 73 -15 14 -40 17 -133 17 -63 0 -122 -5 -131 -11z"/>
<path d="M7990 5190 c-24 -24 -25 -39 -6 -66 12 -16 29 -19 126 -22 124 -4
160 8 160 53 0 47 -22 55 -146 55 -101 0 -116 -2 -134 -20z"/>
<path d="M8710 5190 c-11 -11 -20 -27 -20 -35 0 -8 9 -24 20 -35 18 -18 33
-20 135 -20 102 0 117 2 135 20 24 24 25 38 4 68 -14 21 -22 22 -135 22 -106
0 -121 -2 -139 -20z"/>
<path d="M9415 5186 c-18 -27 -7 -69 20 -80 26 -10 211 -7 238 3 33 13 43 46
23 76 -16 24 -20 25 -141 25 -120 0 -125 -1 -140 -24z"/>
<path d="M10450 5315 c-109 -49 -172 -184 -140 -300 15 -55 78 -128 134 -157
63 -33 157 -30 227 8 172 93 180 326 15 429 -42 25 -61 30 -125 33 -52 1 -87
-3 -111 -13z m207 -128 c32 -32 37 -43 40 -94 5 -69 -17 -112 -69 -139 -46
-24 -121 -23 -155 2 -94 70 -95 190 -3 252 29 20 44 23 93 20 51 -4 63 -9 94
-41z"/>
<path d="M11252 5317 c-114 -42 -186 -183 -153 -302 38 -141 219 -223 347
-157 102 52 144 118 144 223 -1 106 -54 189 -148 230 -49 22 -139 24 -190 6z
m168 -109 c76 -52 96 -129 52 -199 -81 -131 -278 -78 -276 74 0 59 22 100 69
128 43 27 113 25 155 -3z"/>
</g>
</svg>
