<?xml version="1.0" standalone="no"?>
<!DOCTYPE svg PUBLIC "-//W3C//DTD SVG 20010904//EN"
 "http://www.w3.org/TR/2001/REC-SVG-20010904/DTD/svg10.dtd">
<svg version="1.0" xmlns="http://www.w3.org/2000/svg"
 width="1254.000000pt" height="1254.000000pt" viewBox="0 0 1254.000000 1254.000000"
 preserveAspectRatio="xMidYMid meet">

<g transform="translate(0.000000,1254.000000) scale(0.100000,-0.100000)"
fill="#000000" stroke="none">
<path d="M3615 7884 c-784 -60 -1327 -250 -1687 -592 -83 -80 -228 -252 -228
-273 0 -4 5 -19 11 -32 9 -20 -6 -60 -109 -292 l-119 -269 -64 -14 c-181 -38
-558 -136 -663 -171 -128 -43 -172 -69 -212 -122 -35 -48 -49 -103 -90 -374
-30 -199 -36 -268 -36 -402 -1 -241 5 -246 271 -241 l168 3 32 -62 c42 -80
118 -156 198 -195 55 -27 77 -32 161 -36 106 -5 184 14 260 62 59 37 130 115
159 173 18 38 29 51 36 44 15 -15 2223 -15 2232 -1 3 6 23 10 43 10 35 0 38
-3 70 -64 42 -81 113 -148 200 -189 63 -30 73 -32 182 -32 109 0 119 2 183 32
84 40 170 125 210 206 37 77 55 76 95 -6 40 -81 121 -158 209 -200 57 -26 83
-32 159 -35 109 -5 187 16 272 73 58 40 136 133 153 183 10 31 13 32 63 32 30
0 61 6 74 16 22 15 22 19 22 249 0 288 16 265 -186 265 -133 0 -145 2 -200 28
-56 26 -67 27 -214 28 -253 1 -249 0 -260 29 -7 19 -17 25 -40 25 -42 0 -38
18 6 26 29 5 39 14 50 40 l14 34 654 0 654 0 59 -67 c33 -38 103 -120 156
-184 l97 -117 0 -152 0 -152 30 -11 c27 -10 30 -15 30 -58 0 -46 -1 -47 -35
-53 -21 -4 -41 -17 -51 -31 -15 -23 -15 -27 0 -50 16 -25 17 -25 169 -25 165
0 177 4 177 51 0 32 -15 46 -55 52 -28 3 -30 7 -33 53 -2 43 0 50 20 59 18 8
24 20 28 56 5 43 10 51 65 94 33 27 74 61 91 77 l31 29 31 -30 31 -31 1408 0
c1024 0 1407 -3 1405 -11 -6 -24 28 -59 57 -59 l29 0 4 -92 c3 -73 10 -105 30
-150 37 -80 107 -151 187 -191 61 -30 72 -32 171 -32 99 0 110 2 172 33 81 40
168 129 194 199 19 53 34 75 34 52 0 -35 63 -139 111 -184 27 -25 75 -58 107
-73 50 -24 69 -27 162 -27 93 0 112 3 162 27 68 31 147 103 183 163 35 60 58
158 53 222 -5 52 -4 53 23 53 33 0 59 23 59 54 0 22 -21 107 -35 139 -6 15 -1
17 34 17 l41 0 0 -168 c0 -117 4 -172 12 -180 17 -17 239 -17 256 0 8 8 12 62
12 178 l0 166 30 11 30 11 2 129 c2 163 0 175 -19 191 -13 9 -508 12 -2395 12
l-2378 0 -190 255 -190 255 -1369 0 -1370 0 -15 -22 c-13 -18 -16 -54 -16
-180 l0 -158 -97 0 c-114 0 -169 -21 -208 -78 l-25 -37 0 977 0 977 -24 28
c-21 24 -31 27 -92 29 -38 1 -91 0 -119 -2z m133 -452 l2 -352 -935 0 c-901 0
-935 1 -926 18 5 10 55 61 109 114 293 281 709 455 1277 533 116 16 440 45
460 40 6 -1 11 -129 13 -353z m-1232 -1087 c1 -440 -2 -674 -8 -682 -8 -10
-102 -13 -409 -13 l-399 0 0 370 c0 355 -1 370 -19 380 -11 5 -33 10 -50 10
-17 0 -31 4 -31 9 0 9 90 221 175 411 26 58 55 124 66 148 l18 42 328 -2 328
-3 1 -670z m1232 3 l-3 -673 -580 0 -580 0 -3 673 -2 672 585 0 585 0 -2 -672z
m-2108 -312 l0 -324 -65 44 c-159 106 -371 117 -546 29 -55 -29 -150 -113
-179 -161 l-22 -34 -144 0 -144 0 0 24 c0 56 14 71 81 85 75 15 102 39 192
172 63 92 70 123 33 140 -19 9 -38 7 -92 -11 -76 -24 -154 -65 -154 -80 0 -6
-4 -10 -10 -10 -11 0 -4 49 16 106 17 47 46 78 89 94 120 46 527 156 760 205
44 10 89 23 100 31 11 7 35 13 53 13 l32 1 0 -324z m5410 12 c82 -112 168
-227 190 -255 l40 -53 2375 0 2375 0 0 -75 0 -75 -918 0 -918 0 -114 -70 -115
-70 -1366 0 -1366 0 -20 23 c-11 12 -86 114 -167 227 -82 113 -157 213 -168
223 -19 16 -96 17 -1309 17 l-1289 0 0 155 0 155 1310 0 1310 0 150 -202z
m-6351 -205 c-27 -35 -54 -59 -68 -61 -20 -3 -22 0 -16 20 13 43 36 70 78 88
23 10 43 17 46 14 2 -2 -16 -30 -40 -61z m3495 22 c16 -24 20 -25 143 -27 126
-3 127 -3 133 -28 3 -15 18 -31 37 -40 41 -19 41 -27 2 -35 -18 -4 -33 -15
-36 -25 -4 -14 -19 -18 -82 -22 -55 -3 -93 -12 -135 -31 -53 -24 -70 -27 -177
-27 -140 0 -139 -1 -139 115 0 76 16 128 42 138 7 3 54 6 104 6 87 1 93 0 108
-24z m2464 -132 c1 -57 -1 -103 -5 -102 -4 0 -28 26 -53 57 -25 31 -62 78 -84
105 l-38 48 88 -3 89 -3 3 -102z m176 85 c14 -19 16 -65 16 -295 l0 -273 -50
0 -50 0 0 295 0 295 34 0 c25 0 39 -7 50 -22z m-5485 -79 c140 -22 274 -126
323 -249 37 -94 43 -137 9 -64 -63 135 -204 243 -342 263 -185 26 -351 -59
-445 -229 -24 -44 -33 -55 -29 -35 22 101 124 228 221 276 47 22 136 46 179
48 11 1 49 -4 84 -10z m5661 -160 c33 -46 60 -86 60 -89 0 -7 -116 -100 -124
-100 -3 0 -6 64 -6 142 0 78 2 139 5 136 3 -2 32 -42 65 -89z m-5595 -13 c75
-34 130 -89 165 -161 64 -135 45 -274 -52 -380 -28 -31 -74 -68 -102 -83 -46
-24 -62 -27 -151 -27 -86 0 -106 3 -145 24 -61 32 -126 96 -158 156 -24 45
-27 60 -27 155 0 94 3 110 27 155 28 55 106 133 157 160 79 40 199 41 286 1z
m3161 -7 c73 -34 126 -90 163 -168 22 -47 26 -70 26 -141 0 -76 -4 -93 -33
-152 -36 -73 -87 -124 -161 -160 -38 -19 -63 -23 -141 -23 -85 0 -101 3 -154
30 -65 33 -123 93 -157 163 -19 39 -23 64 -24 142 0 86 3 101 29 153 89 175
278 240 452 156z m870 7 c71 -33 138 -97 171 -165 24 -49 28 -68 28 -146 0
-82 -3 -97 -33 -157 -58 -118 -152 -179 -287 -186 -65 -3 -91 0 -139 18 -75
29 -147 94 -183 168 -38 77 -44 194 -14 273 70 185 281 275 457 195z m-2930
14 c6 -6 251 -11 674 -12 l665 -3 0 -185 0 -185 -1025 -3 -1026 -2 0 112 c0
111 -8 150 -59 271 -7 16 15 17 377 17 241 0 388 -4 394 -10z m1562 -57 c-2
-5 -16 -32 -31 -60 -34 -66 -57 -152 -57 -216 0 -41 -3 -48 -17 -45 -16 3 -18
20 -21 153 -1 82 0 155 2 162 4 9 26 13 67 13 33 0 59 -3 57 -7z m882 2 c0 -2
-11 -20 -24 -40 -25 -36 -49 -95 -61 -150 -7 -29 -8 -28 -21 22 -7 29 -26 76
-41 105 -15 29 -29 56 -31 61 -2 4 37 7 87 7 50 0 91 -2 91 -5z m810 -160 c0
-171 -13 -222 -23 -87 -5 78 -32 163 -68 213 -10 15 -19 30 -19 33 0 3 25 6
55 6 l55 0 0 -165z m-4985 138 c-21 -56 -35 -137 -35 -209 l0 -82 -94 -7
c-123 -9 -133 -5 -142 51 -6 44 3 241 13 257 2 4 63 7 135 7 120 0 130 -1 123
-17z m9821 -32 c107 -48 174 -150 174 -262 0 -153 -84 -259 -235 -296 -60 -15
-70 -15 -130 0 -184 45 -279 219 -214 391 24 66 85 132 149 163 61 30 195 31
256 4z m791 -7 c183 -91 223 -326 79 -470 -161 -161 -440 -92 -502 124 -40
136 28 286 157 350 67 33 196 31 266 -4z m573 -110 l0 -135 -47 3 -48 3 -3
119 c-1 66 0 126 2 133 3 8 23 13 51 13 l45 0 0 -136z m-1052 39 c-11 -20 -27
-52 -34 -72 -11 -31 -13 -33 -20 -16 -6 18 -42 98 -52 117 -4 8 53 14 96 9
l32 -3 -22 -35z m-4098 -294 c0 -43 -3 -50 -17 -47 -13 2 -18 14 -19 43 -1 47
2 55 22 55 10 0 14 -13 14 -51z"/>
<path d="M1933 6885 c-17 -7 -38 -24 -47 -37 -25 -39 -176 -396 -176 -417 0
-11 11 -33 24 -48 l24 -28 273 -3 c193 -2 281 1 301 9 56 23 58 34 58 270 l0
217 -31 26 c-30 26 -31 26 -212 26 -132 -1 -191 -5 -214 -15z m335 -90 c22 -5
22 -7 22 -170 l0 -165 -231 0 c-216 0 -231 1 -225 18 43 113 134 306 148 311
22 8 256 13 286 6z"/>
<path d="M2221 5964 c-27 -35 -26 -59 4 -89 21 -22 33 -25 100 -25 67 0 79 3
100 25 30 30 31 54 4 89 -19 24 -26 26 -104 26 -78 0 -85 -2 -104 -26z m169
-44 c0 -6 -28 -10 -65 -10 -37 0 -65 4 -65 10 0 6 28 10 65 10 37 0 65 -4 65
-10z"/>
<path d="M2955 6890 c-3 -6 -3 -19 0 -30 6 -19 16 -20 265 -20 246 0 260 -1
270 -19 6 -13 10 -183 10 -484 0 -437 -1 -465 -18 -480 -16 -15 -50 -17 -270
-17 -241 0 -251 -1 -257 -20 -3 -11 -3 -24 0 -30 4 -6 102 -10 266 -10 282 0
304 4 327 55 9 19 12 157 12 516 l0 491 -29 29 -29 29 -271 0 c-171 0 -272 -4
-276 -10z"/>
<path d="M4552 6131 c-8 -5 -12 -22 -10 -42 l3 -34 129 -3 c136 -3 156 3 156
42 0 41 -17 46 -144 46 -67 0 -127 -4 -134 -9z"/>
<path d="M5161 6126 c-7 -8 -11 -27 -9 -43 l3 -28 137 -3 c127 -2 138 -1 147
17 11 21 5 51 -13 63 -6 4 -66 8 -132 8 -94 0 -124 -3 -133 -14z"/>
<path d="M5766 6124 c-19 -18 -20 -28 -6 -55 10 -17 22 -19 138 -19 134 0 152
5 152 45 0 39 -18 45 -146 45 -98 0 -126 -3 -138 -16z"/>
<path d="M6372 6128 c-16 -16 -15 -53 2 -67 9 -8 56 -11 141 -9 107 3 130 6
138 20 8 12 8 24 -1 42 -12 26 -12 26 -140 26 -86 0 -132 -4 -140 -12z"/>
<path d="M7408 5639 c-21 -12 -24 -59 -6 -77 8 -8 52 -12 133 -12 81 0 125 4
133 12 19 19 15 66 -7 78 -25 13 -230 13 -253 -1z"/>
<path d="M7947 5632 c-21 -23 -22 -46 -1 -66 23 -23 245 -23 268 0 20 19 20
34 0 62 -14 21 -23 22 -133 22 -102 0 -120 -3 -134 -18z"/>
<path d="M8498 5639 c-21 -12 -24 -59 -6 -77 8 -8 52 -12 133 -12 81 0 125 4
133 12 19 19 15 66 -7 78 -25 13 -230 13 -253 -1z"/>
<path d="M9040 5630 c-25 -25 -25 -42 -2 -63 15 -14 41 -17 138 -17 127 0 144
6 144 46 0 46 -23 54 -146 54 -101 0 -116 -2 -134 -20z"/>
<path d="M9587 5632 c-21 -23 -22 -46 -1 -66 23 -23 245 -23 268 0 21 21 20
47 -2 67 -15 14 -41 17 -134 17 -99 0 -117 -3 -131 -18z"/>
<path d="M1185 5523 c-69 -25 -107 -54 -144 -111 -53 -82 -63 -190 -26 -279
20 -47 90 -118 140 -142 61 -29 172 -29 235 0 55 25 114 80 143 134 17 32 22
57 22 125 0 76 -3 91 -30 138 -50 91 -126 140 -228 148 -45 3 -76 0 -112 -13z
m160 -102 c102 -47 141 -148 96 -247 -30 -65 -81 -98 -160 -102 -56 -3 -71 0
-101 20 -106 72 -117 206 -25 295 59 56 119 67 190 34z"/>
<path d="M4348 5527 c-50 -14 -63 -22 -116 -71 -51 -47 -74 -101 -80 -182 -8
-128 48 -232 152 -280 74 -35 183 -34 254 2 160 79 204 305 86 442 -67 79
-195 117 -296 89z m167 -113 c86 -41 122 -168 73 -256 -66 -116 -246 -119
-313 -5 -47 81 -26 196 45 247 61 44 124 48 195 14z"/>
<path d="M5228 5527 c-118 -34 -200 -146 -200 -276 -1 -165 117 -283 282 -283
115 0 209 60 258 165 30 63 30 173 1 237 -57 126 -206 195 -341 157z m133 -99
c104 -35 157 -144 118 -245 -25 -66 -96 -115 -168 -116 -121 -1 -210 111 -180
227 14 58 63 113 114 131 50 17 73 18 116 3z"/>
<path d="M1923 5398 c-19 -25 -21 -46 -7 -67 15 -20 22 -21 269 -21 241 0 255
1 265 19 14 27 13 47 -6 65 -13 14 -51 16 -263 16 -187 0 -251 -3 -258 -12z"/>
<path d="M10420 5436 c-100 -26 -162 -91 -183 -192 -22 -105 31 -212 128 -259
48 -24 64 -27 128 -23 61 3 83 9 123 33 176 109 139 381 -60 440 -58 18 -76
18 -136 1z m140 -108 c75 -52 96 -118 60 -193 -61 -127 -251 -109 -288 28 -35
128 119 239 228 165z"/>
<path d="M11225 5444 c-119 -29 -194 -105 -211 -212 -11 -72 12 -139 70 -198
57 -58 97 -74 186 -74 62 0 141 32 177 71 57 62 81 188 50 262 -21 50 -65 96
-116 122 -48 24 -120 37 -156 29z m111 -110 c42 -20 84 -87 84 -134 0 -39 -32
-98 -68 -125 -39 -29 -128 -32 -170 -6 -128 81 -74 281 76 281 24 0 59 -7 78
-16z"/>
</g>
</svg>
